<svg width="32" height="28" viewBox="0 0 32 28" fill="none" xmlns="http://www.w3.org/2000/svg">
<path fill-rule="evenodd" clip-rule="evenodd" d="M17 1.66669C17 1.40147 16.8946 1.14712 16.7071 0.95958C16.5196 0.772044 16.2652 0.666687 16 0.666687C15.7348 0.666687 15.4804 0.772044 15.2929 0.95958C15.1053 1.14712 15 1.40147 15 1.66669V4.00002H12.368C11.8996 3.99981 11.442 4.14058 11.0546 4.40402L8.79465 5.94269C8.73917 5.98026 8.67365 6.00024 8.60665 6.00002H3.13731C2.8721 6.00002 2.61774 6.10538 2.43021 6.29291C2.24267 6.48045 2.13731 6.7348 2.13731 7.00002C2.13731 7.26524 2.24267 7.51959 2.43021 7.70713C2.61774 7.89466 2.8721 8.00002 3.13731 8.00002H5.23998L0.750648 18.24C0.66585 18.4399 0.647284 18.6616 0.697672 18.8727C0.74806 19.0839 0.864752 19.2733 1.03065 19.4134C1.13731 19.4987 1.24531 19.58 1.44265 19.708C1.69065 19.8694 2.04531 20.0787 2.49865 20.2854C3.40531 20.7 4.71465 21.112 6.33331 21.112C7.65602 21.1146 8.9638 20.8326 10.168 20.2854C10.6213 20.0787 10.976 19.8694 11.224 19.708C11.424 19.5787 11.5306 19.4974 11.6373 19.4107C11.8045 19.2723 11.9222 19.0832 11.9724 18.872C12.0227 18.6608 12.0029 18.439 11.916 18.24L7.42531 8.00002H8.60665C9.07465 8.00002 9.53198 7.85869 9.91865 7.59602L12.18 6.05735C12.2351 6.02004 12.3001 6.00007 12.3666 6.00002H15V25.3334H9.01731C8.7521 25.3334 8.49774 25.4387 8.31021 25.6262C8.12267 25.8138 8.01731 26.0681 8.01731 26.3334C8.01731 26.5986 8.12267 26.8529 8.31021 27.0405C8.49774 27.228 8.7521 27.3334 9.01731 27.3334H22.9826C23.2479 27.3334 23.5022 27.228 23.6898 27.0405C23.8773 26.8529 23.9826 26.5986 23.9826 26.3334C23.9826 26.0681 23.8773 25.8138 23.6898 25.6262C23.5022 25.4387 23.2479 25.3334 22.9826 25.3334H17V6.00002H19.632C19.6986 6.00002 19.7653 6.02002 19.8186 6.05735L22.0813 7.59602C22.468 7.85869 22.9253 8.00002 23.3933 8.00002H24.5746L20.084 18.24C19.9942 18.4448 19.9756 18.6737 20.0312 18.8903C20.0868 19.1068 20.2133 19.2985 20.3906 19.4347C20.4066 19.4467 20.3906 19.4347 20.3933 19.4347C20.5256 19.5343 20.6636 19.626 20.8066 19.7094C21.0533 19.8587 21.4066 20.0507 21.86 20.2427C23.0656 20.7466 24.3599 21.0041 25.6666 21C26.9739 21.0039 28.2687 20.7459 29.4746 20.2414C29.9253 20.0507 30.28 19.8587 30.528 19.7094C30.6705 19.6252 30.8085 19.5335 30.9413 19.4347C31.1186 19.2985 31.2452 19.1068 31.3008 18.8903C31.3564 18.6737 31.3378 18.4448 31.248 18.24L26.76 8.00002H28.864C29.1292 8.00002 29.3836 7.89466 29.5711 7.70713C29.7586 7.51959 29.864 7.26524 29.864 7.00002C29.864 6.7348 29.7586 6.48045 29.5711 6.29291C29.3836 6.10538 29.1292 6.00002 28.864 6.00002H23.3946C23.3281 5.99997 23.2631 5.98 23.208 5.94269L20.9453 4.40402C20.5584 4.14084 20.1013 4.00008 19.6333 4.00002H17V1.66669ZM2.92398 18.264C3.97345 18.8225 5.14452 19.1133 6.33331 19.1107C7.52211 19.1133 8.69318 18.8225 9.74265 18.264L6.33331 10.4907L2.92398 18.264ZM22.2706 18.232C22.38 18.2854 22.5026 18.3427 22.6373 18.4C23.344 18.6974 24.3773 19 25.6666 19C26.8421 19.0034 28.003 18.7408 29.0626 18.232L25.6666 10.4894L22.2706 18.232Z" fill="#AFB8CA"/>
</svg>
