<svg width="28" height="22" viewBox="0 0 28 22" fill="none" xmlns="http://www.w3.org/2000/svg">
<path d="M22.9998 21.6666H4.99984C3.89299 21.6667 2.82807 21.2432 2.02353 20.4831C1.21899 19.7229 0.735835 18.6837 0.673171 17.5786L0.666504 17.3333V3.33331C0.666411 2.57314 0.954898 1.84128 1.47366 1.28564C1.99243 0.729999 2.70278 0.392009 3.46117 0.33998L3.6665 0.333313H20.3332C21.0933 0.33322 21.8252 0.621707 22.3808 1.14047C22.9365 1.65924 23.2745 2.36959 23.3265 3.12798L23.3332 3.33331V4.33331H24.3332C25.0933 4.33322 25.8252 4.62171 26.3808 5.14047C26.9365 5.65924 27.2745 6.36959 27.3265 7.12798L27.3332 7.33331V17.3333C27.3332 18.4402 26.9098 19.5051 26.1496 20.3096C25.3895 21.1142 24.3502 21.5973 23.2452 21.66L22.9998 21.6666H4.99984H22.9998ZM4.99984 19.6666H22.9998C23.5856 19.6666 24.15 19.4462 24.5808 19.0492C25.0116 18.6523 25.2773 18.1078 25.3252 17.524L25.3332 17.3333V7.33331C25.3332 7.09166 25.2456 6.85819 25.0868 6.67607C24.928 6.49395 24.7086 6.37551 24.4692 6.34265L24.3332 6.33331H23.3332V16.6666C23.3332 16.9083 23.2456 17.1418 23.0868 17.3239C22.928 17.506 22.7086 17.6244 22.4692 17.6573L22.3332 17.6666C22.0915 17.6666 21.858 17.5791 21.6759 17.4203C21.4938 17.2615 21.3754 17.042 21.3425 16.8026L21.3332 16.6666V3.33331C21.3332 3.09166 21.2456 2.85819 21.0868 2.67607C20.928 2.49395 20.7086 2.37551 20.4692 2.34265L20.3332 2.33331H3.6665C3.42485 2.33332 3.19138 2.42084 3.00926 2.57967C2.82714 2.7385 2.7087 2.95791 2.67584 3.19731L2.6665 3.33331V17.3333C2.66653 17.9189 2.88673 18.4831 3.28341 18.9138C3.68009 19.3446 4.22424 19.6105 4.80784 19.6586L4.99984 19.6666H22.9998H4.99984ZM14.3278 14.3333H18.3358C18.5892 14.3334 18.8331 14.4296 19.0182 14.6026C19.2034 14.7756 19.3159 15.0124 19.3332 15.2652C19.3505 15.5179 19.2712 15.7678 19.1113 15.9644C18.9514 16.1609 18.7228 16.2894 18.4718 16.324L18.3358 16.3333H14.3278C14.0745 16.3332 13.8306 16.237 13.6454 16.064C13.4603 15.891 13.3477 15.6542 13.3305 15.4015C13.3132 15.1487 13.3925 14.8988 13.5524 14.7022C13.7123 14.5057 13.9408 14.3772 14.1918 14.3426L14.3278 14.3333H18.3358H14.3278ZM10.3238 9.67331C10.5891 9.67331 10.8434 9.77867 11.0309 9.9662C11.2185 10.1537 11.3238 10.4081 11.3238 10.6733V15.3333C11.3238 15.5985 11.2185 15.8529 11.0309 16.0404C10.8434 16.228 10.5891 16.3333 10.3238 16.3333H5.66384C5.39862 16.3333 5.14427 16.228 4.95673 16.0404C4.76919 15.8529 4.66384 15.5985 4.66384 15.3333V10.6733C4.66384 10.4081 4.76919 10.1537 4.95673 9.9662C5.14427 9.77867 5.39862 9.67331 5.66384 9.67331H10.3238ZM9.32384 11.6733H6.66384V14.3333H9.32384V11.6733ZM14.3278 9.67331H18.3358C18.5892 9.67339 18.8331 9.76964 19.0182 9.94261C19.2034 10.1156 19.3159 10.3524 19.3332 10.6052C19.3505 10.8579 19.2712 11.1078 19.1113 11.3044C18.9514 11.5009 18.7228 11.6294 18.4718 11.664L18.3358 11.6733H14.3278C14.0727 11.6759 13.8262 11.5809 13.6388 11.4076C13.4514 11.2344 13.3374 10.9961 13.32 10.7415C13.3026 10.4869 13.3832 10.2353 13.5453 10.0382C13.7074 9.8411 13.9387 9.71342 14.1918 9.68131L14.3278 9.67331H18.3358H14.3278ZM5.66384 5.00265H18.3358C18.591 5.00005 18.8375 5.0951 19.0249 5.26834C19.2123 5.44158 19.3263 5.67989 19.3437 5.93448C19.3611 6.18907 19.2805 6.44067 19.1184 6.63777C18.9563 6.83486 18.725 6.96254 18.4718 6.99465L18.3358 7.00265H5.66384C5.41047 7.00257 5.16658 6.90632 4.98145 6.73335C4.79631 6.56038 4.68374 6.32358 4.66647 6.07081C4.6492 5.81803 4.72852 5.56812 4.88841 5.37158C5.0483 5.17504 5.27684 5.04651 5.52784 5.01198L5.66384 5.00265H18.3358H5.66384Z" fill="#AFB8CA"/>
</svg>
