<svg width="32" height="32" viewBox="0 0 32 32" fill="none" xmlns="http://www.w3.org/2000/svg">
<path d="M28.3244 32H3.67563C1.64887 32 0 30.3511 0 28.3243V7.44131C0 5.4145 1.64887 3.76562 3.67563 3.76562H28.3244C30.3511 3.76562 32 5.4145 32 7.44131V28.3244C32 30.3511 30.3511 32 28.3244 32Z" fill="#F2F6FC"/>
<path d="M28.3244 3.76562H16V32H28.3244C30.3511 32 32 30.3511 32 28.3243V7.44131C32 5.4145 30.3511 3.76562 28.3244 3.76562Z" fill="#E9EDF5"/>
<path d="M13.4949 12.2648L12.7294 8.66382C12.6217 8.15732 12.945 7.65957 13.4514 7.55188C13.9579 7.44401 18.0419 7.44426 18.5484 7.55188C19.0548 7.65957 19.378 8.15738 19.2704 8.66382L18.5049 12.2648L15.9999 27.1952L13.4949 12.2648Z" fill="#D6475C"/>
<path d="M18.5051 12.2648L19.2706 8.66382C19.3782 8.15732 19.055 7.65957 18.5485 7.55188C18.2953 7.49807 17.1477 7.47113 16.0001 7.47107V27.1951L18.5051 12.2648Z" fill="#AD3445"/>
<path d="M13.4884 12.2344L13.4948 12.2646L11.3067 27.1606C11.2637 27.4538 11.3618 27.7502 11.5714 27.9597L15.337 31.7254C15.52 31.9084 15.76 32 15.9999 32C16.2398 32 16.4798 31.9084 16.6628 31.7254L20.4284 27.9597C20.638 27.7501 20.7361 27.4538 20.693 27.1606L18.5049 12.2646L18.5113 12.2344H13.4884Z" fill="#FA5D0F"/>
<path d="M18.5051 12.2646L18.5115 12.2344H16V32C16.2399 32 16.4799 31.9084 16.6629 31.7254L20.4285 27.9597C20.6381 27.7501 20.7362 27.4538 20.6931 27.1606L18.5051 12.2646Z" fill="#D6475C"/>
<path d="M27.2969 16.9375H22.25C21.7322 16.9375 21.3125 16.5178 21.3125 16C21.3125 15.4822 21.7322 15.0625 22.25 15.0625H27.2969C27.8146 15.0625 28.2344 15.4822 28.2344 16C28.2344 16.5178 27.8146 16.9375 27.2969 16.9375Z" fill="#23272B"/>
<path d="M26.2091 4.20625L23.8556 0.440625C23.6843 0.1665 23.3839 0 23.0606 0H8.9395C8.61625 0 8.31581 0.1665 8.1445 0.440625L5.79099 4.20625C5.57637 4.54969 5.60649 4.99219 5.86581 5.30331L10.5729 10.9517C10.8997 11.3439 11.4801 11.4026 11.8787 11.0836L16.0001 7.7865L20.1214 11.0836C20.2942 11.2218 20.501 11.2891 20.7066 11.2891C20.9754 11.2891 21.2421 11.1739 21.4273 10.9517L26.1344 5.30331C26.3936 4.99219 26.4237 4.54969 26.2091 4.20625Z" fill="#DCE1EB"/>
<path d="M23.8555 0.440625C23.6842 0.1665 23.3838 0 23.0606 0H16V7.7865L20.1214 11.0836C20.2941 11.2218 20.5009 11.2891 20.7065 11.2891C20.9754 11.2891 21.242 11.1739 21.4272 10.9517L26.1343 5.30331C26.3936 4.99219 26.4238 4.54969 26.2091 4.20625L23.8555 0.440625Z" fill="#CDD2E1"/>
<path d="M8.93944 0L16 7.7865L23.0606 0H8.93944Z" fill="#414952"/>
<path d="M16 7.7865L23.0606 0H16V7.7865Z" fill="#23272B"/>
</svg>
