<svg width="32" height="32" viewBox="0 0 32 32" fill="none" xmlns="http://www.w3.org/2000/svg">
<path d="M29.125 15V22.5H27.25V20.625C27.25 19.5938 26.4062 18.75 25.375 18.75C24.3438 18.75 23.5 19.5938 23.5 20.625V23.4375C23.5 24.9937 22.2438 26.25 20.6875 26.25C19.1312 26.25 17.875 24.9937 17.875 23.4375V19.6875C17.875 19.1624 17.4626 18.75 16.9375 18.75C16.4124 18.75 16 19.1624 16 19.6875C16 20.5125 15.6438 21.2624 15.0625 21.7687C14.4437 22.35 13.5437 22.6313 12.6062 22.4438C11.2562 22.1626 10.4313 20.8688 10.375 19.5C10.2812 17.0062 8.21869 15 5.6875 15V13.125H27.25C28.2812 13.125 29.125 13.9688 29.125 15Z" fill="#FF5252"/>
<path d="M29.125 15V22.5H27.25V20.625C27.25 19.5938 26.4062 18.75 25.375 18.75C24.3438 18.75 23.5 19.5938 23.5 20.625V23.4375C23.5 24.9937 22.2438 26.25 20.6875 26.25C19.1312 26.25 17.875 24.9937 17.875 23.4375V19.6875C17.875 19.1624 17.4626 18.75 16.9375 18.75C16.4124 18.75 16 19.1624 16 19.6875C16 20.5125 15.6438 21.2624 15.0625 21.7687V13.125H27.25C28.2812 13.125 29.125 13.9688 29.125 15Z" fill="#FF1515"/>
<path d="M29.125 15H1V0H29.125V15Z" fill="#B3FFB3"/>
<path d="M15.0625 0H29.125V15H15.0625V0Z" fill="#9EF29E"/>
<path d="M2.8125 1.875H27.25V13.1875H2.8125V1.875Z" fill="#78D978"/>
<path d="M15.0625 1.875H27.25V13.1875H15.0625V1.875Z" fill="#56BF67"/>
<path d="M25.375 11.25H21.625V9.375H23.5V5.625H21.625V3.75H25.375V11.25Z" fill="#3AA65F"/>
<path d="M8.5 11.25H4.75V3.75H8.5V5.625H6.625V9.375H8.5V11.25Z" fill="#56BF67"/>
<path d="M28.1875 32C26.6366 32 25.375 30.7383 25.375 29.1875C25.375 27.6187 27.7269 24.4757 28.1875 23.7877C28.7127 24.5723 31 27.6372 31 29.1875C31 30.7383 29.7384 32 28.1875 32Z" fill="#FF1515"/>
<path d="M15.0625 11.25C12.4779 11.25 10.375 9.56819 10.375 7.5C10.375 5.43181 12.4779 3.75 15.0625 3.75C17.6471 3.75 19.75 5.43181 19.75 7.5C19.75 9.56819 17.6471 11.25 15.0625 11.25Z" fill="#56BF67"/>
<path d="M19.75 7.5C19.75 5.43181 17.6471 3.75 15.0625 3.75V11.25C17.6471 11.25 19.75 9.56819 19.75 7.5Z" fill="#3AA65F"/>
<path d="M15.0625 9.375C16.6158 9.375 17.875 8.53553 17.875 7.5C17.875 6.46447 16.6158 5.625 15.0625 5.625C13.5092 5.625 12.25 6.46447 12.25 7.5C12.25 8.53553 13.5092 9.375 15.0625 9.375Z" fill="#B3FFB3"/>
<path d="M17.875 7.5C17.875 6.50119 16.5608 5.625 15.0625 5.625V9.375C16.5608 9.375 17.875 8.49881 17.875 7.5Z" fill="#9EF29E"/>
</svg>
