<svg width="32" height="32" viewBox="0 0 32 32" fill="none" xmlns="http://www.w3.org/2000/svg">
<path d="M22 8L18.8787 11.1213C18.3161 11.6839 18 12.447 18 13.2426V14H16V8H22Z" fill="#E13741"/>
<path d="M10 8L13.1213 11.1213C13.6839 11.6839 14 12.447 14 13.2426V14H16V8H10Z" fill="#E13741"/>
<path d="M26 13H7V31H17V28H23C24.0609 28 25.0783 27.5786 25.8284 26.8284C26.5786 26.0783 27 25.0609 27 24V14C27 13.7348 26.8946 13.4804 26.7071 13.2929C26.5196 13.1054 26.2652 13 26 13Z" fill="#FAB991"/>
<path d="M6 13C5.73478 13 5.48043 13.1054 5.29289 13.2929C5.10536 13.4804 5 13.7348 5 14V24C5 24.5304 5.21071 25.0391 5.58579 25.4142C5.96086 25.7893 6.46957 26 7 26H12C12.5304 26 13.0391 25.7893 13.4142 25.4142C13.7893 25.0391 14 24.5304 14 24V19C14.7956 19 15.5587 18.6839 16.1213 18.1213C16.6839 17.5587 17 16.7956 17 16V13H6Z" fill="#3C3C3C"/>
<path d="M14 16C13.2044 16 12.4413 16.3161 11.8787 16.8787C11.3161 17.4413 11 18.2044 11 19C11 19.7956 11.3161 20.5587 11.8787 21.1213C12.4413 21.6839 13.2044 22 14 22V16Z" fill="#F0915A"/>
<path d="M22.5 17C23.2956 17 24.0587 17.3161 24.6213 17.8787C25.1839 18.4413 25.5 19.2044 25.5 20V20.5C25.5 20.8978 25.342 21.2794 25.0607 21.5607C24.7794 21.842 24.3978 22 24 22C23.6022 22 23.2206 21.842 22.9393 21.5607C22.658 21.2794 22.5 20.8978 22.5 20.5V17Z" fill="#F0915A"/>
<path d="M20.7071 15.2929L20 14.5858C19.9536 14.5394 19.8985 14.5025 19.8378 14.4774C19.7771 14.4523 19.7121 14.4393 19.6464 14.4393C19.5808 14.4393 19.5158 14.4523 19.4551 14.4774C19.3944 14.5025 19.3393 14.5394 19.2929 14.5858C19.2464 14.6322 19.2096 14.6873 19.1845 14.748C19.1594 14.8087 19.1464 14.8737 19.1464 14.9393C19.1464 15.005 19.1594 15.07 19.1845 15.1307C19.2096 15.1914 19.2464 15.2465 19.2929 15.2929C19.153 15.4328 19.0578 15.6109 19.0192 15.8049C18.9806 15.9989 19.0004 16.2 19.0761 16.3827C19.1518 16.5654 19.28 16.7216 19.4444 16.8315C19.6089 16.9413 19.8022 17 20 17C20.1978 17 20.3911 16.9413 20.5556 16.8315C20.72 16.7216 20.8482 16.5654 20.9239 16.3827C20.9996 16.2 21.0194 15.9989 20.9808 15.8049C20.9422 15.6109 20.847 15.4328 20.7071 15.2929Z" fill="#3C3C3C"/>
<path d="M25.7071 15.2929C25.7536 15.2465 25.7904 15.1914 25.8155 15.1307C25.8407 15.07 25.8536 15.005 25.8536 14.9393C25.8536 14.8737 25.8407 14.8087 25.8155 14.748C25.7904 14.6873 25.7536 14.6322 25.7071 14.5858C25.6607 14.5394 25.6056 14.5025 25.5449 14.4774C25.4843 14.4523 25.4192 14.4393 25.3536 14.4393C25.2879 14.4393 25.2229 14.4523 25.1622 14.4774C25.1016 14.5025 25.0464 14.5394 25 14.5858L24.2929 15.2929C24.153 15.4328 24.0578 15.6109 24.0192 15.8049C23.9806 15.9989 24.0004 16.2 24.0761 16.3827C24.1518 16.5654 24.28 16.7216 24.4444 16.8315C24.6089 16.9413 24.8022 17 25 17C25.1978 17 25.3911 16.9413 25.5556 16.8315C25.72 16.7216 25.8482 16.5654 25.9239 16.3827C25.9996 16.2 26.0194 15.9989 25.9808 15.8049C25.9422 15.6109 25.847 15.4328 25.7071 15.2929Z" fill="#3C3C3C"/>
<path d="M21 23.5H24.3333C24.5985 23.5 24.8529 23.6054 25.0404 23.7929C25.228 23.9804 25.3333 24.2348 25.3333 24.5V25H20V24.5C20 24.2348 20.1054 23.9804 20.2929 23.7929C20.4804 23.6054 20.7348 23.5 21 23.5Z" fill="white"/>
<path d="M23 3.8334C22.8396 3.83358 22.6794 3.84734 22.5213 3.87453C22.3469 3.53409 22.1054 3.2325 21.8113 2.98794C21.5172 2.74339 21.1766 2.56094 20.81 2.4516C20.4435 2.34226 20.0586 2.30829 19.6786 2.35175C19.2986 2.39521 18.9313 2.51519 18.5989 2.70446C18.3788 2.19807 18.0157 1.767 17.554 1.46421C17.0923 1.16143 16.5521 1.00012 16 1.00012C15.4479 1.00012 14.9078 1.16143 14.4461 1.46421C13.9844 1.767 13.6212 2.19807 13.4011 2.70446C13.0688 2.51519 12.7015 2.39521 12.3214 2.35175C11.9414 2.30829 11.5565 2.34226 11.19 2.4516C10.8235 2.56094 10.4829 2.74339 10.1888 2.98794C9.89466 3.2325 9.65314 3.53409 9.47876 3.87453C8.96254 3.78599 8.43188 3.84229 7.94572 4.03717C7.45956 4.23204 7.03694 4.55786 6.72479 4.97845C6.41265 5.39903 6.2232 5.89791 6.17748 6.41967C6.13177 6.94143 6.23159 7.46566 6.46584 7.93411C6.7001 8.40256 7.05963 8.79691 7.50449 9.07336C7.94935 9.3498 8.46214 9.49752 8.9859 9.5001C9.50965 9.50268 10.0239 9.36003 10.4714 9.08798C10.919 8.81594 11.2824 8.42515 11.5213 7.95903C12.1464 8.06664 12.7896 7.96119 13.3477 7.65957C13.9058 7.35796 14.3464 6.87767 14.5989 6.29571C15.0258 6.5389 15.5087 6.66678 16 6.66678C16.4913 6.66678 16.9742 6.5389 17.4011 6.29571C17.6536 6.87767 18.0942 7.35796 18.6523 7.65957C19.2104 7.96119 19.8536 8.06664 20.4788 7.95903C20.7084 8.40695 21.0531 8.78563 21.4776 9.0561C21.9021 9.32657 22.391 9.47907 22.894 9.49792C23.397 9.51676 23.8959 9.40127 24.3395 9.16332C24.783 8.92537 25.1552 8.57355 25.4176 8.14406C25.6801 7.71457 25.8234 7.22291 25.8328 6.71966C25.8423 6.21641 25.7174 5.71973 25.4712 5.28072C25.225 4.84171 24.8663 4.47622 24.4319 4.22184C23.9976 3.96747 23.5034 3.83339 23 3.8334Z" fill="#F05555"/>
<path d="M20 4.33333C19.4965 4.33322 19.002 4.46735 18.5676 4.72192C18.1332 4.97648 17.7745 5.34226 17.5285 5.78158C17.0724 5.48891 16.5419 5.33333 16 5.33333C15.4581 5.33333 14.9276 5.48891 14.4715 5.78158C14.1941 5.28625 13.7744 4.88565 13.2667 4.63168C12.759 4.37771 12.1867 4.28208 11.624 4.35719C11.0613 4.43229 10.5341 4.67466 10.1108 5.0529C9.68742 5.43114 9.38745 5.9278 9.2497 6.47853C9.11195 7.02925 9.14278 7.60866 9.3382 8.14166C9.53362 8.67465 9.88461 9.13668 10.3457 9.46785C10.8068 9.79902 11.3567 9.98408 11.9242 9.99904C12.4917 10.014 13.0506 9.85818 13.5285 9.55176C13.7746 9.991 14.1333 10.3567 14.5677 10.6113C15.0021 10.8658 15.4965 11 16 11C16.5035 11 16.9979 10.8658 17.4323 10.6113C17.8667 10.3567 18.2254 9.991 18.4715 9.55176C18.842 9.78924 19.2628 9.93712 19.7005 9.98368C20.1381 10.0302 20.5806 9.97419 20.9928 9.81999C21.405 9.66579 21.7756 9.41767 22.0753 9.0953C22.3749 8.77294 22.5953 8.3852 22.7191 7.96283C22.8428 7.54045 22.8664 7.09507 22.788 6.66198C22.7096 6.2289 22.5315 5.82003 22.2676 5.46779C22.0037 5.11556 21.6614 4.82965 21.2678 4.63273C20.8742 4.43581 20.4401 4.3333 20 4.33333Z" fill="#FF7373"/>
<path d="M27.5 4C28.0523 4 28.5 3.55228 28.5 3C28.5 2.44772 28.0523 2 27.5 2C26.9477 2 26.5 2.44772 26.5 3C26.5 3.55228 26.9477 4 27.5 4Z" fill="#F05555"/>
<path d="M4.5 4C5.05228 4 5.5 3.55228 5.5 3C5.5 2.44772 5.05228 2 4.5 2C3.94772 2 3.5 2.44772 3.5 3C3.5 3.55228 3.94772 4 4.5 4Z" fill="#F05555"/>
<path d="M7.25 12.5C7.94036 12.5 8.5 11.9404 8.5 11.25C8.5 10.5596 7.94036 10 7.25 10C6.55964 10 6 10.5596 6 11.25C6 11.9404 6.55964 12.5 7.25 12.5Z" fill="#E13741"/>
<path d="M24.75 12.5C25.4404 12.5 26 11.9404 26 11.25C26 10.5596 25.4404 10 24.75 10C24.0596 10 23.5 10.5596 23.5 11.25C23.5 11.9404 24.0596 12.5 24.75 12.5Z" fill="#E13741"/>
</svg>
