<svg width="48" height="48" viewBox="0 0 48 48" fill="none" xmlns="http://www.w3.org/2000/svg">
<g clip-path="url(#clip0)">
<path d="M28.0527 1.60059H2.45784C1.10044 1.60059 0 2.70102 0 4.05843V38.8912C0 37.2355 1.34212 35.8934 2.99775 35.8934H28.0527C28.5957 35.8934 29.0359 35.4532 29.0359 34.9102V2.58374C29.0359 2.04074 28.5956 1.60059 28.0527 1.60059Z" fill="#F9F6F9"/>
<path d="M26.299 38.8913C26.299 37.6367 26.9444 36.5335 27.9206 35.8936H2.99775C1.34212 35.8936 0 37.2357 0 38.8913C0 40.5469 1.34212 41.889 2.99766 41.889H27.1732C27.4126 41.889 27.5263 41.6003 27.3564 41.4315C26.7035 40.7828 26.299 39.8845 26.299 38.8913Z" fill="#FFECD0"/>
<path d="M26.299 38.8913C26.299 37.6367 26.9444 36.5335 27.9206 35.8936H25.4669C24.4906 36.5335 23.8452 37.6367 23.8452 38.8913V38.9027C23.8471 39.4963 23.3794 39.9834 22.7858 39.9834H0.206062C0.64275 41.0987 1.72753 41.8891 2.99766 41.8891H25.4669H27.1732C27.4126 41.8891 27.5263 41.6004 27.3564 41.4316C26.7035 40.7829 26.299 39.8845 26.299 38.8913Z" fill="#F1CB86"/>
<path d="M12.2522 38.9513H3.35653C2.96044 38.9513 2.63943 38.6303 2.63943 38.2342C2.63943 37.8381 2.96044 37.5171 3.35653 37.5171H12.2522C12.6483 37.5171 12.9693 37.8381 12.9693 38.2342C12.9693 38.6303 12.6483 38.9513 12.2522 38.9513Z" fill="#F1CB86"/>
<path d="M8.47931 45.5652L6.82312 43.8846C6.67331 43.7326 6.42815 43.7326 6.27834 43.8846L4.62215 45.5652C4.50206 45.687 4.29478 45.6021 4.29478 45.431V38.4256C4.29478 38.3201 4.38037 38.2344 4.48603 38.2344H8.61562C8.72119 38.2344 8.80687 38.32 8.80687 38.4256V45.431C8.80669 45.6021 8.59931 45.687 8.47931 45.5652Z" fill="#DD636E"/>
<path d="M8.61544 38.2344H6.98888V44.0529L8.47922 45.5652C8.59931 45.687 8.80669 45.6021 8.80669 45.431V38.4256C8.80669 38.32 8.7211 38.2344 8.61544 38.2344Z" fill="#DA4A54"/>
<path d="M28.0527 1.60059H25.2541V28.5606C25.2541 30.5769 23.6196 32.2115 21.6033 32.2115H2.26622C1.36078 32.2115 0.549656 32.6135 0 33.2481V38.8912C0 37.2356 1.34212 35.8935 2.99775 35.8935H28.0527C28.5957 35.8935 29.0359 35.4533 29.0359 34.9103V2.58374C29.0359 2.04074 28.5956 1.60059 28.0527 1.60059Z" fill="#DDDAEC"/>
<path d="M14.7182 22.4606C14.7157 22.454 14.7131 22.4475 14.7105 22.4411C14.576 22.114 14.2608 21.9028 13.9072 21.9028C13.907 21.9028 13.9066 21.9028 13.9062 21.9028C13.5523 21.9032 13.2371 22.1151 13.1032 22.4427C13.1011 22.4481 13.0989 22.4535 13.0969 22.4589L10.5877 29.0472C10.4467 29.4172 10.6325 29.8315 11.0026 29.9725C11.3722 30.1135 11.7869 29.9278 11.9279 29.5575L12.377 28.3785H15.4187L15.8629 29.5556C16.0023 29.9298 16.4261 30.1123 16.787 29.9732C17.1575 29.8334 17.3445 29.4197 17.2046 29.0491L14.7182 22.4606ZM12.9232 26.9443L13.9048 24.367L14.8775 26.9443H12.9232Z" fill="#407093"/>
<path d="M8.84119 28.4806C8.83978 28.4806 8.83838 28.4806 8.83706 28.4806C8.27316 28.4838 7.6665 28.486 7.21809 28.4862V22.5208C7.21809 22.1247 6.89709 21.8037 6.501 21.8037C6.10491 21.8037 5.78391 22.1247 5.78391 22.5208V29.1977C5.78391 29.5468 6.03534 29.8452 6.3795 29.9044C6.43078 29.9132 6.47475 29.9207 7.21125 29.9207C7.5675 29.9207 8.08566 29.9189 8.84503 29.9147C9.24113 29.9124 9.56035 29.5896 9.5581 29.1936C9.55594 28.799 9.23541 28.4806 8.84119 28.4806Z" fill="#407093"/>
<path d="M26.1388 21.8301C25.7502 21.7523 25.3728 22.0049 25.2956 22.3933L24.4299 26.7428L23.0644 22.3099C22.9478 21.9313 22.5463 21.7191 22.1679 21.8357C21.9077 21.9159 21.7261 22.1306 21.6758 22.38L20.3253 26.7432L19.4627 22.3819C19.3857 21.9934 19.0087 21.7404 18.6201 21.8176C18.2316 21.8945 17.979 22.2716 18.0559 22.6601L19.3578 29.2423C19.5158 30.0905 20.8 30.143 21.0312 29.3133L22.3793 24.9578L23.7215 29.3143C23.9541 30.1442 25.2377 30.0891 25.395 29.2412L26.7022 22.6734C26.7794 22.2849 26.5272 21.9074 26.1388 21.8301Z" fill="#407093"/>
<path d="M26.1388 21.8305C25.7502 21.7527 25.3728 22.0053 25.2956 22.3937L25.2541 22.6025V28.5609C25.2541 28.9816 25.182 29.3853 25.051 29.7615C25.2212 29.6502 25.3514 29.4765 25.3949 29.2416L26.7021 22.6738C26.7794 22.2853 26.5272 21.9078 26.1388 21.8305Z" fill="#2B4D66"/>
<path d="M45.3667 8.43808C44.7943 9.08074 43.9611 9.48593 43.0328 9.48593C42.2592 9.48593 41.5517 9.20458 41.0062 8.73893C40.7718 8.53896 40.4687 8.43799 40.1606 8.43799H27.5562C27.2482 8.43799 26.945 8.53886 26.7107 8.73893C26.1652 9.20458 25.4576 9.48593 24.6841 9.48593C23.7558 9.48593 22.9225 9.08074 22.3502 8.43808V15.5345C22.9225 14.8918 23.7558 14.4866 24.6841 14.4866C25.4576 14.4866 26.1652 14.768 26.7107 15.2336C26.9451 15.4336 27.2482 15.5346 27.5562 15.5346H40.1605C40.4686 15.5346 40.7718 15.4337 41.0061 15.2336C41.5516 14.768 42.2592 14.4866 43.0327 14.4866C43.961 14.4866 44.7942 14.8918 45.3666 15.5345V8.43808H45.3667Z" fill="#C6865C"/>
<path d="M45.3667 13.0732C44.7943 12.4306 43.9611 12.0254 43.0328 12.0254C42.2715 12.0254 41.5741 12.2979 41.0321 12.7505C40.7787 12.962 40.4566 13.0733 40.1265 13.0733H27.5903C27.2602 13.0733 26.938 12.962 26.6846 12.7505C26.1427 12.2979 25.4453 12.0254 24.684 12.0255C23.7557 12.0255 22.9224 12.4307 22.3501 13.0733V15.5344C22.9224 14.8917 23.7557 14.4865 24.684 14.4865C25.4575 14.4865 26.1651 14.7679 26.7106 15.2335C26.945 15.4335 27.2481 15.5345 27.5561 15.5345H40.1604C40.4685 15.5345 40.7717 15.4336 41.006 15.2335C41.5515 14.7679 42.259 14.4865 43.0326 14.4865C43.9609 14.4865 44.7941 14.8917 45.3665 15.5344V13.0732H45.3667Z" fill="#B16E3D"/>
<path d="M35.8032 44.4108V42.9685C35.8032 42.6831 35.8568 42.4009 35.9578 42.134C36.3479 41.1033 36.5826 39.7811 36.5826 38.3385C36.5826 36.8958 36.3479 35.5737 35.9578 34.5429C35.5958 33.499 35.9976 32.1357 35.6305 31.0849C35.3647 30.165 35.2107 29.0749 35.2107 27.9061C35.2107 26.7372 35.3647 25.6472 35.6305 24.7272C35.7495 24.3155 35.8031 23.8878 35.8031 23.4593V20.2539H31.9135V23.4593C31.9135 23.8877 31.9672 24.3155 32.0861 24.7272C32.352 25.6472 32.5059 26.7372 32.5059 27.9061C32.5059 29.0749 32.352 30.165 32.0861 31.0849C31.7192 32.1351 32.1208 33.4994 31.7588 34.5429C31.3688 35.5736 31.1341 36.8958 31.1341 38.3385C31.1341 39.7811 31.3688 41.1032 31.7588 42.134C31.8599 42.4009 31.9134 42.6831 31.9134 42.9685V44.4546C31.9134 45.5162 32.7639 46.379 33.8207 46.3991C34.9109 46.4197 35.8032 45.5012 35.8032 44.4108Z" fill="#D8AA8B"/>
<path d="M35.8032 44.4108V42.9685C35.8032 42.6831 35.8568 42.4009 35.9578 42.134C36.3479 41.1033 36.5826 39.7811 36.5826 38.3385C36.5826 36.8958 36.3479 35.5737 35.9578 34.5429C35.5958 33.499 35.9976 32.1357 35.6305 31.0849C35.3647 30.165 35.2107 29.0749 35.2107 27.9061C35.2107 26.7372 35.3647 25.6472 35.6305 24.7272C35.7495 24.3155 35.8031 23.8878 35.8031 23.4593V20.2539H33.9161V23.1234C33.9161 23.5518 33.8625 23.9796 33.7435 24.3913C33.4777 25.3113 33.3237 26.4014 33.3237 27.5702C33.3237 28.7389 33.4777 29.8291 33.7435 30.749C34.1106 31.7997 33.7088 33.1631 34.0708 34.207C34.4609 35.2377 34.6956 36.5599 34.6956 38.0026C34.6956 39.4452 34.4609 40.7673 34.0708 41.7981C33.9697 42.065 33.9162 42.3472 33.9162 42.6326V44.0749C33.9162 44.9264 33.3721 45.673 32.6146 45.9496C32.9428 46.2229 33.3623 46.3905 33.8208 46.3992C34.9109 46.4197 35.8032 45.5012 35.8032 44.4108Z" fill="#CE9875"/>
<path d="M34.6305 21.5591H33.0863C31.9417 21.5591 31.0137 20.6312 31.0137 19.4866C31.0137 18.342 31.9417 17.4141 33.0863 17.4141H34.6305C35.7751 17.4141 36.703 18.342 36.703 19.4866C36.703 20.6312 35.7751 21.5591 34.6305 21.5591Z" fill="#C6865C"/>
<path d="M35.6367 17.6753C35.6443 17.7473 35.6483 17.8203 35.6483 17.8943C35.6483 19.0389 34.7205 19.9668 33.5758 19.9668H32.0316C31.6663 19.9668 31.3234 19.872 31.0253 19.7061C31.1348 20.7478 32.0156 21.5596 33.0863 21.5596H34.6305C35.7751 21.5596 36.703 20.6317 36.703 19.4871C36.703 18.7078 36.2726 18.0292 35.6367 17.6753Z" fill="#B16E3D"/>
<path d="M28.2242 5.75977H39.4926V18.1957H28.2242V5.75977Z" fill="#FFECD0"/>
<path d="M39.4926 5.75977H35.4638V13.1269C35.4638 14.4421 34.3976 15.5084 33.0824 15.5084H28.2241V18.1957H39.4925L39.4926 5.75977Z" fill="#F1CB86"/>
<path d="M21.6377 17.5883C20.5147 17.5883 19.6043 16.678 19.6043 15.5549V8.41811C19.6043 7.29517 20.5147 6.38477 21.6377 6.38477C22.7606 6.38477 23.671 7.29508 23.671 8.41811V12.2408L22.875 13.3833L23.671 14.655V15.5548C23.671 16.6779 22.7607 17.5883 21.6377 17.5883Z" fill="#C6865C"/>
<path d="M45.9667 17.5883C44.8437 17.5883 43.9333 16.678 43.9333 15.5549V8.41811C43.9333 7.29517 44.8436 6.38477 45.9667 6.38477C47.0896 6.38477 48 7.29508 48 8.41811V15.5549C48 16.6779 47.0897 17.5883 45.9667 17.5883Z" fill="#C6865C"/>
<path d="M21.787 6.39062C21.8962 6.64 21.9572 6.91534 21.9572 7.20503V14.3418C21.9572 15.4648 21.0469 16.3752 19.9238 16.3752C19.8736 16.3752 19.8239 16.3727 19.7745 16.3692C20.0886 17.0866 20.8043 17.5881 21.6377 17.5881C22.7606 17.5881 23.671 16.6778 23.671 15.5548V8.41797C23.671 7.34528 22.8402 6.46722 21.787 6.39062Z" fill="#B16E3D"/>
<path d="M46.116 6.39062C46.2252 6.64 46.2862 6.91534 46.2862 7.20503V14.3418C46.2862 15.4648 45.3758 16.3752 44.2528 16.3752C44.2026 16.3752 44.1529 16.3727 44.1035 16.3692C44.4175 17.0866 45.1333 17.5881 45.9667 17.5881C47.0897 17.5881 48 16.6778 48 15.5548V8.41797C48 7.34528 47.1692 6.46722 46.116 6.39062Z" fill="#B16E3D"/>
<path d="M39.4926 19.7792C39.0965 19.7792 38.7755 19.4582 38.7755 19.0622V4.89287C38.7755 4.49678 39.0965 4.17578 39.4926 4.17578C39.8887 4.17578 40.2097 4.49678 40.2097 4.89287V19.0623C40.2097 19.4583 39.8887 19.7792 39.4926 19.7792Z" fill="#C5865B"/>
<path d="M28.2207 19.7792C27.8246 19.7792 27.5036 19.4582 27.5036 19.0622V4.89287C27.5036 4.49678 27.8246 4.17578 28.2207 4.17578C28.6168 4.17578 28.9378 4.49678 28.9378 4.89287V19.0623C28.9378 19.4583 28.6168 19.7792 28.2207 19.7792Z" fill="#C5865B"/>
<path d="M11.7161 9.8336H7.17037C6.77428 9.8336 6.45328 9.5126 6.45328 9.11651C6.45328 8.72041 6.77428 8.39941 7.17037 8.39941H11.7161C12.1122 8.39941 12.4332 8.72041 12.4332 9.11651C12.4332 9.5126 12.1122 9.8336 11.7161 9.8336Z" fill="#DD636E"/>
<path d="M13.8696 6.45128H7.17037C6.77428 6.45128 6.45328 6.13028 6.45328 5.73418C6.45328 5.33809 6.77428 5.01709 7.17037 5.01709H13.8696C14.2657 5.01709 14.5867 5.33809 14.5867 5.73418C14.5867 6.13028 14.2656 6.45128 13.8696 6.45128Z" fill="#407093"/>
<path d="M2.62154 35.9178C2.74482 35.9023 2.87026 35.8934 2.99776 35.8934H4.05563V1.60059H2.62154V35.9178Z" fill="#D0CEE7"/>
<path d="M2.62154 35.9177C2.74482 35.9023 2.87026 35.8934 2.99776 35.8934H4.05563V32.2114H2.62154V35.9177Z" fill="#BEB9DD"/>
</g>
<defs>
<clipPath id="clip0">
<rect width="48" height="48" fill="white"/>
</clipPath>
</defs>
</svg>
