<?xml version="1.0" encoding="utf-8"?>
<!-- Generator: Adobe Illustrator 23.1.0, SVG Export Plug-In . SVG Version: 6.00 Build 0)  -->
<svg version="1.1"
	 id="Слой_1" xmlns:cc="http://creativecommons.org/ns#" xmlns:dc="http://purl.org/dc/elements/1.1/" xmlns:rdf="http://www.w3.org/1999/02/22-rdf-syntax-ns#"
	 xmlns="http://www.w3.org/2000/svg" xmlns:xlink="http://www.w3.org/1999/xlink" x="0px" y="0px" width="200px" height="200px"
	 viewBox="0 0 200 200" style="enable-background:new 0 0 200 200;" xml:space="preserve">
<style type="text/css">
	.st0{fill:#23336E;}
	.st1{fill:none;stroke:#23336E;stroke-width:1.6192;stroke-miterlimit:13.3333;}
</style>
<symbol  id="a" viewBox="-2.2 -2.1 4.3 4.2">
	<path class="st0" d="M0.2,1.2l0-2.5c0-0.3,0-0.5-0.2-0.8l-1.6,2c-0.2,0.2-0.3,0.3-0.5,0.3l0,0l0.7,0.5l0,0c-0.1-0.2,0-0.4,0.1-0.6
		l1.1-1.3l0,2.7l0,0.1c0,0,0,0.1,0,0.1l0.5,0.4l0,0c-0.1-0.3,0-0.4,0.2-0.6l1.1-1.4c0.2-0.2,0.3-0.3,0.5-0.3l0,0L1.5-0.7l0,0
		c0.1,0.3,0,0.4-0.2,0.6L0.2,1.2z"/>
</symbol>
<symbol  id="aa" viewBox="-1.4 -1.7 2.9 3.3">
	<path class="st0" d="M-0.7,0.5l1.5-1.3C1-0.9,1.2-1.1,1.4-1l0,0L0.9-1.7l0,0c0.1,0.2-0.2,0.4-0.3,0.5L-0.8,0
		C-1,0.1-1.2,0.3-1.4,0.2l0,0l1.2,1.5l0.6-0.2v0C0.1,1.4-0.1,1.3-0.4,1L-0.7,0.5z"/>
</symbol>
<symbol  id="ab" viewBox="-1.7 -1.8 3.5 3.6">
	<path class="st0" d="M0.6,0.2L0.4,0.8C0.2,1.2,0.2,1.2,0,1.1l0,0l0.7,0.7l0,0C0.6,1.5,0.7,1.3,0.8,1l0.9-2.3L1.2-1.8l0,0
		c0.1,0.2-0.1,0.3-0.2,0.3l-1.9,0.8c-0.3,0.1-0.5,0.3-0.8,0.1l0,0l0.6,0.6l0,0c-0.1-0.2,0-0.3,0.3-0.4l0.6-0.3L0.6,0.2z M0.8-0.1
		L0.1-0.8l1.1-0.5L0.8-0.1z"/>
</symbol>
<symbol  id="ac" viewBox="-0.7 -1.5 1.3 3">
	<path class="st0" d="M0.4-0.8c0-0.2,0-0.5,0.3-0.6v0l-0.9-0.1v0C0-1.4-0.1-1.1-0.1-0.9l-0.3,1.7c0,0.2,0,0.5-0.3,0.6v0l0.9,0.1v0
		C0,1.4,0.1,1.1,0.1,0.9L0.4-0.8z"/>
</symbol>
<symbol  id="ad" viewBox="-1.6 -2 3.2 4">
	<path class="st0" d="M0.2-2L0.2-2C0.4-1.8,0.1-1.5,0-1.4L-1,0c-0.1,0.2-0.3,0.4-0.5,0.4l0,0l0.7,0.5l0,0C-1,0.7-0.8,0.4-0.7,0.3
		l1.3-1.6c0.1,0,0.2,0.1,0.3,0.2C1.1-1,1.2-0.7,1-0.4c-0.3,0.3-0.7,0.2-1,0l-0.1,0.8l0,0.9c0,0.2,0.1,0.3,0.3,0.5L0.6,2
		C0.5,1.7,0.4,1.4,0.4,1l0-1c0.3,0.2,0.8,0.1,1.1-0.2C1.7-0.5,1.6-1,1.1-1.3L0.2-2z"/>
</symbol>
<symbol  id="ae" viewBox="-1.7 -1.6 3.4 3.2">
	<path class="st0" d="M0.8-1.3C0-1.8-1-1.6-1.5-0.9C-2-0.1-1.6,0.9-0.8,1.3C0,1.8,1,1.6,1.5,0.8C1.9,0.1,1.7-0.8,0.8-1.3z M0.6-1
		C1.3-0.7,1.3,0.1,1,0.6C0.7,1.2,0,1.4-0.6,1.1S-1.3-0.1-1-0.6C-0.6-1.2,0-1.4,0.6-1z"/>
</symbol>
<symbol  id="af" viewBox="-1.4 -1.7 2.8 3.3">
	<path class="st0" d="M0.3-0.8l0.4,0.2C0.8-0.6,1-0.5,1-0.3h0l0.4-0.4h0c-0.1,0-0.1,0-0.2-0.1l-1.6-0.7l-0.1,0c-0.1,0-0.1,0-0.2-0.1
		h0l-0.4,0.4h0c0.2-0.1,0.4,0,0.6,0.1L-0.1-1l-0.8,1.8C-1,1-1.1,1.3-1.4,1.3v0l0.8,0.4v0c-0.2-0.2-0.1-0.4,0-0.6L0.3-0.8z"/>
</symbol>
<symbol  id="ag" viewBox="-1.4 -1.6 2.9 3.2">
	<path class="st0" d="M1.4-1.1C1.2-1.3,0.9-1.4,0.7-1.5c-0.9-0.3-1.8,0.1-2,1c-0.3,0.9,0.2,1.7,1.2,2c0.3,0.1,0.5,0.1,0.7,0.1L1,1.2
		h0c-0.3,0-0.7,0.1-1,0c-0.7-0.2-1-0.9-0.8-1.5s0.8-0.9,1.4-0.7c0.3,0.1,0.5,0.3,0.7,0.5L1.4-1.1z"/>
</symbol>
<symbol  id="ah" viewBox="-1.1 -1.6 2.3 3.3">
	<path class="st0" d="M-0.2,0l0.3,0.1c0.1,0,0.3,0.1,0.4,0.2h0l0.1-0.5h0c-0.1,0-0.1,0-0.2,0l-0.5-0.1l0.2-0.8c0.1,0,0.3,0,0.5,0.1
		C0.7-1,0.9-1,1-0.8h0l0.1-0.5h0c-0.1,0-0.1,0-0.2,0l-1.5-0.3l0,0C-0.4-1.5-0.4-1.2-0.5-1l-0.3,1.7c0,0.2-0.1,0.5-0.3,0.6v0l1.9,0.4
		l0.3-0.5h0C0.8,1.3,0.5,1.3,0.1,1.2L-0.4,1L-0.2,0z"/>
</symbol>
<symbol  id="ai" viewBox="-1.1 -1.6 2.2 3.1">
	<path class="st0" d="M-0.4,1.1l0.2-1.9c0-0.2,0-0.5,0.3-0.6v0l-0.9-0.1v0c0.2,0.1,0.2,0.4,0.1,0.6l-0.2,1.7c0,0.2,0,0.5-0.3,0.6v0
		l1.9,0.2L1.1,1h0C0.8,1.2,0.6,1.2,0.2,1.2L-0.4,1.1z"/>
</symbol>
<symbol  id="aj" viewBox="-1.1 -1.5 2.2 3">
	<path class="st0" d="M-0.4,0H0c0.1,0,0.3,0,0.4,0.1h0v-0.5h0c0,0-0.1,0-0.2,0h-0.5l0-0.8c0.1,0,0.3,0,0.5,0c0.2,0,0.4,0,0.5,0.2h0
		v-0.5h0c-0.1,0-0.1,0-0.2,0h-1.5v0C-0.8-1.4-0.9-1-0.9-0.8l0,1.7c0,0.2,0,0.5-0.2,0.6v0l1.9,0l0.2-0.6h0C0.8,1.1,0.5,1.2,0.2,1.1
		l-0.6,0L-0.4,0z"/>
</symbol>
<symbol  id="ak">
</symbol>
<symbol  id="al" viewBox="-1.6 -1.5 3.2 3.1">
	<path class="st0" d="M-1.6-1.4L-1.6-1.4c0.3,0,0.3,0.4,0.3,0.6L-1,0.9c0,0.2,0.1,0.5-0.1,0.6v0l0.9-0.1v0c-0.3,0-0.3-0.4-0.3-0.6
		l-0.3-2c0.1,0,0.2-0.1,0.3-0.1C-0.3-1.3,0-1.2,0.1-0.8c0.1,0.4-0.3,0.6-0.7,0.8l0.5,0.6L0.6,1c0.2,0.1,0.3,0.2,0.6,0.1l0.4-0.1
		C1.3,1,1,0.8,0.7,0.6L0-0.1C0.3-0.2,0.6-0.6,0.6-1C0.5-1.4,0.1-1.6-0.5-1.5L-1.6-1.4z"/>
</symbol>
<symbol  id="am" viewBox="-1.7 -1.6 3.4 3.1">
	<path class="st0" d="M-0.4-1.5c-1,0.3-1.5,1.1-1.2,2c0.3,0.9,1.2,1.3,2.1,1s1.5-1.1,1.2-2C1.4-1.3,0.5-1.8-0.4-1.5L-0.4-1.5z
		 M-0.3-1.2C0.4-1.4,1-0.9,1.2-0.3C1.3,0.4,1,1,0.4,1.2C-0.3,1.4-1,0.9-1.2,0.3C-1.3-0.4-1-1-0.3-1.2L-0.3-1.2z"/>
</symbol>
<symbol  id="an">
</symbol>
<symbol  id="ao" viewBox="-1 -1.7 2 3.4">
	<path class="st0" d="M0.2,0.1L0.5,0c0.2-0.1,0.3-0.1,0.4,0h0L0.8-0.5h0c0,0.1-0.1,0.1-0.2,0.1L0.1-0.2l-0.3-0.8
		C-0.1-1,0-1.1,0.2-1.2c0.2-0.1,0.4-0.1,0.6,0l0,0L0.6-1.7l0,0c-0.1,0-0.1,0.1-0.2,0.1L-1-1v0c0.3,0,0.4,0.3,0.5,0.5L0.1,1
		c0.1,0.2,0.3,0.5,0,0.6v0L1,1.4v0c-0.3,0-0.4-0.3-0.4-0.5L0.2,0.1z"/>
</symbol>
<symbol  id="ap">
</symbol>
<symbol  id="aq" viewBox="-2 -2.1 4.1 4.1">
	<path class="st0" d="M-1.2-0.2l2.4,0.8C1.5,0.7,1.7,0.8,2,0.7L0.7-1.4C0.5-1.6,0.5-1.8,0.6-2v0l-0.7,0.4v0c0.3,0,0.4,0.2,0.5,0.4
		l0.9,1.4l-2.6-0.8l-0.1,0c0,0-0.1,0-0.1-0.1v0L-2-0.4v0c0.3,0,0.4,0.1,0.5,0.3l1,1.5C-0.4,1.6-0.3,1.8-0.5,2l0,0l0.7-0.4l0,0
		C0,1.6-0.1,1.5-0.3,1.3L-1.2-0.2z"/>
</symbol>
<symbol  id="ar" viewBox="-1.7 -1.6 3.3 3.3">
	<path class="st0" d="M-1-1.2c-0.8,0.6-0.9,1.6-0.4,2.3C-0.7,1.8,0.3,1.8,1,1.2c0.7-0.6,0.9-1.6,0.3-2.3C0.8-1.7-0.2-1.8-1-1.2
		L-1-1.2z M-0.8-0.9C-0.2-1.4,0.5-1.2,1-0.7c0.4,0.5,0.4,1.2-0.1,1.6C0.3,1.4-0.5,1.2-0.9,0.7C-1.4,0.2-1.3-0.5-0.8-0.9L-0.8-0.9z"
		/>
</symbol>
<symbol  id="as" viewBox="-1.4 -1.3 2.8 2.7">
	<path class="st0" d="M0.4,0.8c0.2,0.1,0.4,0.4,0.3,0.6l0,0l0.6-0.6l0,0C1.1,0.8,0.9,0.6,0.8,0.4l-1.2-1.2c-0.1-0.1-0.4-0.4-0.3-0.6
		l0,0l-0.6,0.6l0,0c0.2-0.1,0.4,0.1,0.6,0.3L0.4,0.8z"/>
</symbol>
<symbol  id="at" viewBox="-1.7 -1.6 3.3 3.2">
	<path class="st0" d="M-0.5-0.6l0.3-0.3C-0.2-1.1,0-1.2,0.1-1.1v0l-0.3-0.5l0,0c0,0.1-0.1,0.1-0.1,0.2l-1.1,1.3L-1.5,0
		c0,0-0.1,0.1-0.1,0.1l0,0l0.3,0.5c0-0.2,0.1-0.4,0.2-0.5l0.3-0.3L0.7,1C0.9,1.2,1.1,1.4,1,1.6l0,0l0.6-0.7l0,0C1.4,1,1.2,0.9,1,0.7
		L-0.5-0.6z"/>
</symbol>
<symbol  id="au" viewBox="-1.9 -1.6 3.7 3.2">
	<path class="st0" d="M0.3-0.8l0.6,0.2c0.4,0.1,0.4,0.1,0.4,0.3l0,0l0.6-0.8l0,0C1.6-0.9,1.3-1,1-1.1l-2.5-0.5L-1.9-1l0,0
		c0.2-0.1,0.3,0.1,0.4,0.2l1.1,1.7C-0.2,1.1,0,1.3-0.1,1.6l0,0l0.5-0.7l0,0C0.2,1.1,0.1,0.9,0,0.7l-0.4-0.5L0.3-0.8z M-0.1-0.9
		l-0.5,0.7l-0.7-1L-0.1-0.9z"/>
</symbol>
<symbol  id="av" viewBox="-1.7 -1.7 3.4 3.4">
	<path class="st0" d="M0.4,1.2c0.2,0.1,0.4,0.2,0.5,0.5h0l0.5-1c0.5-0.9,0.3-1.8-0.5-2.2C0.1-1.9-0.7-1.6-1.2-0.7l-0.5,1
		c0.2-0.2,0.5,0,0.6,0.1L0.4,1.2z M-1.1-0.1C-1-0.2-1-0.4-0.9-0.5C-0.5-1.2,0-1.4,0.7-1c0.7,0.4,0.7,1.1,0.4,1.7
		c0,0.1-0.1,0.2-0.2,0.3L-1.1-0.1z"/>
</symbol>
<symbol  id="aw" viewBox="-2 -2 4 3.9">
	<path class="st0" d="M-1.2,0.6l2.4-0.8C1.6-0.3,1.8-0.3,2-0.6l-2.4-0.9C-0.6-1.6-0.8-1.7-0.9-2l-0.3,0.8c0.2-0.2,0.4-0.1,0.6,0
		l1.6,0.6l-2.6,0.8l-0.1,0c0,0-0.1,0-0.1,0L-2,0.9c0.2-0.2,0.4-0.1,0.6,0l1.7,0.7C0.6,1.6,0.8,1.7,0.8,2h0l0.3-0.8h0
		c-0.2,0.2-0.4,0.1-0.6,0L-1.2,0.6z"/>
</symbol>
<symbol  id="ax" viewBox="-1.8 -1.5 3.6 3.1">
	<path class="st0" d="M1.6-0.2l0.2-0.7h0c-0.1,0.2-0.5,0.1-0.7,0l-1.7-0.4c-0.2-0.1-0.5-0.1-0.5-0.4h0l-0.2,0.8h0
		c0.1-0.2,0.5-0.1,0.7,0l1.3,0.3c0.2,0,0.3,0.1,0.4,0.2C1.2,0,1.3,0.3,1.2,0.5C1.1,1,0.8,1.2,0.2,1L-1,0.7c-0.2-0.1-0.5-0.1-0.5-0.4
		h0l-0.2,0.8h0c0.1-0.2,0.5-0.1,0.6,0L0,1.5c0.3,0.1,0.6,0.2,0.9,0C1.2,1.3,1.4,1,1.5,0.7c0.1-0.3,0.1-0.7-0.1-1L1.6-0.2z"/>
</symbol>
<symbol  id="ay">
</symbol>
<symbol  id="az" viewBox="-1.6 -1.7 3.2 3.3">
	<path class="st0" d="M-1.6-0.2c-0.2,1,0.5,1.8,1.3,1.9c0.9,0.1,1.7-0.6,1.8-1.5c0.1-0.9-0.5-1.8-1.4-1.9C-0.6-1.8-1.4-1.2-1.6-0.2z
		 M-1.2-0.1c0.1-0.7,0.8-1,1.5-1c0.7,0.1,1.1,0.6,1,1.3c-0.1,0.7-0.8,1.1-1.4,1C-0.9,1.1-1.3,0.6-1.2-0.1L-1.2-0.1z"/>
</symbol>
<symbol  id="b" viewBox="-1.5 -2 3.1 3.9">
	<path class="st0" d="M-0.1,2L-0.1,2C-0.2,1.8,0,1.5,0.1,1.3L1-0.1c0.1-0.2,0.3-0.5,0.5-0.4l0,0L0.8-1l0,0c0.2,0.2,0,0.5-0.1,0.6
		l-1.1,1.7c-0.1,0-0.2-0.1-0.3-0.1C-1,1.1-1.2,0.7-1,0.5c0.2-0.4,0.7-0.3,1-0.1l0-0.8l-0.1-0.9c0-0.2-0.1-0.3-0.3-0.5L-0.8-2
		C-0.7-1.7-0.5-1.3-0.5-1l0.1,1c-0.4-0.1-0.8,0-1.1,0.3C-1.7,0.6-1.5,1.1-1,1.4L-0.1,2z"/>
</symbol>
<symbol  id="ba" viewBox="-1.5 -0.9 3 1.8">
	<path class="st0" d="M0,0.2v-0.3c0-0.1,0-0.3,0.1-0.4v0h-0.5v0c0,0,0,0.1,0,0.2l0,0.5l-0.8,0c0-0.2,0-0.3,0-0.5
		c0-0.2,0-0.4,0.2-0.5v0l-0.5,0v0c0,0.1,0,0.2,0,0.2l0,1.5h0c0.1-0.2,0.4-0.2,0.6-0.2l1.7,0c0.2,0,0.5,0,0.6,0.2h0l0-0.9h0
		C1.4,0.2,1.1,0.2,0.9,0.2L0,0.2z"/>
</symbol>
<symbol  id="bb">
</symbol>
<symbol  id="bc" viewBox="-1.5 -1.2 3.1 2.4">
	<path class="st0" d="M1.1,0.2l-2,0.3c-0.2,0-0.5,0.1-0.6-0.1h0l0.1,0.9h0c0-0.3,0.4-0.3,0.6-0.3l1.7-0.2c0.2,0,0.5-0.1,0.6,0.1h0
		L1.3-1L0.7-1.2v0C0.9-1,1-0.7,1.1-0.4L1.1,0.2z"/>
</symbol>
<symbol  id="bd" viewBox="-1.7 -1.6 3.4 3.2">
	<path class="st0" d="M0.1-0.2l0.6-0.4C0.9-0.8,1-0.9,1.1-0.7h0L0.9-1.6h0C0.8-1.3,0.6-1.2,0.4-1l-2,1.5l0.2,0.7l0,0
		C-1.5,0.9-1.3,1-1.1,1l2,0.3c0.3,0,0.5,0,0.7,0.3h0L1.5,0.8h0C1.4,1,1.3,1,1,1L0.3,0.9L0.1-0.2z M-0.2,0L0,0.8l-1.2-0.2L-0.2,0z"/>
</symbol>
<symbol  id="be" viewBox="-2 -1.9 3.9 3.7">
	<path class="st0" d="M-0.4,1.1l1.3-2.2C1-1.3,1.1-1.5,1.1-1.9L-1.3-1C-1.5-0.9-1.7-0.8-2-1l0.3,0.8c0.1-0.3,0.2-0.3,0.5-0.4
		l1.6-0.6L-0.9,1L-1,1.1c0,0,0,0.1-0.1,0.1l0.2,0.6c0.1-0.3,0.2-0.3,0.5-0.4l1.7-0.6c0.2-0.1,0.4-0.1,0.6,0h0L1.7,0h0
		c0,0.3-0.2,0.4-0.5,0.4L-0.4,1.1z"/>
</symbol>
<symbol  id="bf" viewBox="-1.6 -1.6 3.3 3.3">
	<path class="st0" d="M-1.4,0.7C-1,1.6,0.1,1.9,0.8,1.5c0.8-0.4,1-1.4,0.6-2.2C0.9-1.5,0-1.9-0.8-1.5C-1.6-1.1-1.9-0.2-1.4,0.7
		L-1.4,0.7z M-1.1,0.6c-0.3-0.6,0-1.3,0.6-1.6c0.6-0.3,1.3-0.2,1.6,0.4C1.4,0,1.1,0.7,0.5,1C-0.1,1.4-0.8,1.2-1.1,0.6L-1.1,0.6z"/>
</symbol>
<symbol  id="bg" viewBox="-1.5 -1.2 3 2.4">
	<path class="st0" d="M0.8-0.3C1-0.4,1.3-0.6,1.5-0.4l0,0L1-1.2l0,0c0.1,0.2-0.2,0.4-0.4,0.5l-1.4,0.9C-1,0.4-1.3,0.6-1.5,0.5
		L-1,1.2c-0.1-0.3,0.2-0.4,0.4-0.5L0.8-0.3z"/>
</symbol>
<symbol  id="bh" viewBox="-1.7 -1.5 3.4 3">
	<path class="st0" d="M-0.8,0.3L-1.1,0c-0.1-0.1-0.2-0.3-0.1-0.4l0,0l-0.5,0.2h0c0.1,0,0.1,0.1,0.2,0.1l1.1,1.3l0.1,0.1
		c0,0,0.1,0.1,0.1,0.2l0,0l0.5-0.2l0,0C0,1.3-0.1,1.1-0.3,1l-0.3-0.3l1.6-1.2c0.2-0.1,0.4-0.3,0.6-0.2l0,0L1.1-1.5l0,0
		C1.2-1.2,1-1.1,0.8-1L-0.8,0.3z"/>
</symbol>
<symbol  id="bi" viewBox="-1.7 -1.8 3.5 3.6">
	<path class="st0" d="M-0.6-0.2l0.3-0.6c0.2-0.3,0.2-0.4,0.4-0.3l0,0l-0.7-0.7l0,0c0.1,0.3,0,0.5-0.2,0.8l-1,2.3l0.5,0.5
		C-1.3,1.6-1.1,1.5-1,1.4l1.9-0.7c0.3-0.1,0.5-0.3,0.8-0.1l0,0L1.1,0l0,0c0.1,0.2,0,0.3-0.3,0.4L0.2,0.6L-0.6-0.2z M-0.7,0.1
		l0.6,0.7l-1.1,0.5L-0.7,0.1z"/>
</symbol>
<symbol  id="bj" viewBox="-3.5 -4.4 6.9 8.8">
	<path class="st0" d="M3.2,0.6C3,0.3,2.8,0,2.4-0.3C2.2-0.5,1.9-0.6,1.5-0.8C1.4-0.9,1-1.1,0.6-1.2C0.1-1.4-0.1-1.5-0.3-1.6
		C-0.6-1.8-0.7-2-0.7-2.3c0-0.3,0.1-0.5,0.4-0.6c0.2-0.1,0.5-0.2,0.8-0.2c0.3,0,0.7,0,1,0.2c0.3,0.1,0.6,0.3,1,0.4V-4
		C1.7-4.3,0.9-4.4,0.1-4.4c-0.5,0-0.9,0-1.3,0.1C-1.6-4.1-2-4-2.3-3.8C-2.6-3.6-2.9-3.3-3.1-3c-0.2,0.3-0.3,0.7-0.3,1
		c0,0.8,0.4,1.5,1.1,2c0.2,0.1,0.8,0.4,2,1c0.7,0.3,1.1,0.7,1.1,1.1c0,0.3-0.2,0.6-0.5,0.7C0.1,3-0.2,3.1-0.6,3.1
		c-0.5,0-1-0.1-1.5-0.3c-0.5-0.2-1-0.4-1.4-0.7L-3,3.9c0.9,0.3,1.8,0.5,2.7,0.5c0.6,0,1,0,1.5-0.1C1.6,4.2,2,4,2.4,3.7
		c0.7-0.5,1.1-1.2,1.1-2.1C3.5,1.3,3.4,0.9,3.2,0.6L3.2,0.6z"/>
</symbol>
<symbol  id="bk" viewBox="-3.3 -4.2 6.7 8.5">
	<path class="st0" d="M3.3,2.3C3,2.6,2.7,2.8,2.4,2.9C2.1,3,1.7,3,1.3,3C1,3,0.7,3,0.5,3C0.2,2.9,0,2.9-0.2,2.8V0.4h0.6
		c0.4,0,0.7,0,0.8,0.1c0.2,0.1,0.3,0.2,0.3,0.4h0.1v-1.8H1.6c-0.1,0-0.3,0.1-0.5,0.1h-1.3v-2.1h0.8c0.4,0,0.7,0,1,0.1
		C1.8-2.8,2-2.6,2.1-2.4l0-1.8C2-4.2,1.9-4.2,1.6-4.2H1.5l-4.8,0C-3.1-4-3-3.9-2.9-3.7c0.1,0.2,0.1,0.5,0.1,0.9v5.6
		c0,0.3,0,0.6-0.1,0.8c-0.1,0.3-0.3,0.5-0.5,0.6h6.1L3.3,2.3L3.3,2.3z"/>
</symbol>
<symbol  id="bl" viewBox="-2.7 -4.2 5.5 8.5">
	<path class="st0" d="M2.7-4.2c-0.1,0-0.2,0.1-0.3,0.1c-0.1,0-0.2,0-0.3,0l-4.8,0C-2.5-4-2.4-3.9-2.3-3.7c0.1,0.2,0.1,0.5,0.1,0.9
		v5.6c0,0.3,0,0.6-0.1,0.8c-0.1,0.2-0.2,0.4-0.5,0.6l3.8,0C0.7,4,0.6,3.7,0.5,3.4c0-0.2-0.1-0.5-0.1-1v-2h0.3c0.4,0,0.6,0,0.8,0.1
		c0.2,0,0.3,0.2,0.4,0.4H2v-1.8H1.9c-0.1,0-0.3,0.1-0.5,0.1h-1v-2.1h0.8c0.4,0,0.7,0,0.9,0.1s0.4,0.2,0.6,0.4L2.7-4.2z"/>
</symbol>
<symbol  id="bm" viewBox="-1.9 -4.2 3.7 8.4">
	<path class="st0" d="M1.9,4.2C1.7,4.1,1.5,3.9,1.4,3.7C1.3,3.5,1.3,3.2,1.3,2.8v-5.6c0-0.3,0-0.6,0.1-0.8c0.1-0.2,0.2-0.4,0.5-0.6
		l-3.7,0c0.2,0.1,0.3,0.3,0.5,0.5c0.1,0.2,0.1,0.5,0.1,0.9v5.6c0,0.3,0,0.6-0.1,0.8c-0.1,0.3-0.3,0.5-0.5,0.6L1.9,4.2z"/>
</symbol>
<symbol  id="c" viewBox="-1.4 -1.7 2.9 3.5">
	<path class="st0" d="M0.2,0.1l-0.3-0.2c-0.1-0.1-0.3-0.1-0.3-0.3l0,0l-0.2,0.4l0,0c0.1,0,0.1,0,0.2,0L0,0.4l-0.4,0.8
		C-0.5,1.1-0.6,1-0.8,0.9C-1,0.9-1.1,0.8-1.2,0.6h0L-1.4,1h0c0.1,0,0.1,0,0.2,0.1l1.3,0.6l0,0C0,1.6,0.1,1.3,0.2,1.1L1-0.4
		c0.1-0.2,0.2-0.5,0.5-0.5v0l-1.8-0.8l-0.4,0.4l0,0c0.3-0.1,0.6,0,0.9,0.1l0.5,0.3L0.2,0.1z"/>
</symbol>
<symbol  id="d" viewBox="-0.4 -0.4 0.8 0.9">
	<path class="st0" d="M0.2,0.4c0.1-0.1,0.2-0.1,0.2-0.3c0-0.1,0-0.2,0-0.3C0.3-0.3,0.2-0.4,0.2-0.4c-0.1,0-0.2,0-0.3,0
		c-0.1,0.1-0.2,0.1-0.2,0.3c0,0.1,0,0.2,0,0.3c0,0.1,0.1,0.2,0.2,0.2C-0.1,0.5,0.1,0.4,0.2,0.4L0.2,0.4z"/>
</symbol>
<symbol  id="e">
</symbol>
<symbol  id="f" viewBox="-1.3 -2 2.6 4">
	<path class="st0" d="M-0.6-2c-0.2-0.1-0.5,0-0.5,0.2c-0.1,0.2-0.4,1.6,0.3,1.9C-0.7,0.2-0.3,0.2,0,0.2c0.3-0.1,0.6,0,0.8,0.1
		C1.2,0.5,1.1,0.9,1,1.2c0,0.1-0.1,0.2-0.3,0.3c-0.1,0-0.2,0.1-0.2,0.1c0,0.1,0,0.3,0.1,0.4c0.1,0,0.4,0,0.6-0.3
		c0.2-0.4,0.2-1.2-0.1-1.9C0.9-0.4,0.8-0.5,0.7-0.6C0.4-0.7,0-0.7-0.3-0.7s-0.5,0-0.6,0C-1.1-0.8-1.1-1-1-1.2
		C-1-1.3-0.9-1.4-0.7-1.5c0.1-0.1,0.2-0.1,0.2-0.2C-0.5-1.8-0.5-1.9-0.6-2L-0.6-2z"/>
</symbol>
<symbol  id="g" viewBox="-1.3 -1.7 2.6 3.3">
	<path class="st0" d="M-0.3,0.9l-0.4-0.2C-0.8,0.7-1,0.6-1,0.5l0,0l-0.3,0.4h0c0.1,0,0.1,0,0.2,0.1l1.6,0.6l0.1,0c0,0,0.1,0,0.2,0.1
		h0l0.3-0.4l0,0c-0.2,0.1-0.4,0-0.6,0L0.2,1l0.7-1.9C1-1,1.1-1.3,1.3-1.3v0L0.4-1.7v0c0.2,0.2,0.1,0.4,0,0.6L-0.3,0.9z"/>
</symbol>
<symbol  id="h" viewBox="-1.2 -2.3 2.5 4.5">
	<path class="st0" d="M0.6-2.1C0.3-2.3,0.1-2.3,0-2.1c-0.2,0.3-0.1,0.7,0.1,1.8v0c0,0,0,0,0,0c0,0,0-0.1-0.1-0.1
		C-0.3-0.8-0.4-1-0.5-1.1c-0.1-0.1-0.2,0-0.2,0s-0.4,1-0.4,1.2c0,0,0,0.1,0,0.1c0,0,0.1,0,0.1,0c0,0,0.1-0.3,0.1-0.3
		c0.1-0.1,0.2-0.1,0.3-0.1c0.4,0.2,1.3,2,1.6,2.3C1,2.2,1,2.2,1,2.2c0,0,0.1,0,0.1,0c0,0,0,0,0-0.1c0-0.2,0.1-0.5,0.1-0.7
		c-1-1.4-1.2-2.7-1-3c0.1-0.1,0.2-0.1,0.3-0.1c0.1,0,0.2,0,0.3-0.1C0.9-1.7,0.9-1.9,0.6-2.1L0.6-2.1z"/>
</symbol>
<symbol  id="i" viewBox="-1.6 -2.5 3.2 5.1">
	<path class="st0" d="M1.6-1.2C1.6-1.2,1.5-1.2,1.6-1.2C1.5-1.2,1.5-1,1.4-0.8c0,0.6-0.1,0.9-0.2,1C1.2,0.3,1.1,0.2,1,0.1
		C0.4-0.3-0.4-2.2-0.2-2.4c0,0,0-0.1,0-0.1c0,0-0.1,0-0.1,0c-0.2,0.2-0.3,0.6-0.3,0.8c0,0,0,0.1,0,0.1c0,0,0,0,0,0
		c-0.2,0-0.3,0.1-0.5,0.3c-1.1,1.3,0,3.4,0.5,3.8c0.2,0.2,0.4,0.2,0.6,0c0.2-0.2,0.4-1.1,0.3-2.1c0,0,0,0,0,0l0,0
		c0.2,0.2,0.3,0.4,0.4,0.5C0.9,1,1.1,1,1.2,0.8C1.6,0.3,1.7-1.1,1.6-1.2L1.6-1.2z M-0.7-1.4c0,0,0.1,0.1,0.1,0.2
		C-0.4-0.8,0.1,0.4,0,1.4c0,0.1,0,0.2-0.1,0.3c-0.1,0.1-0.2,0.1-0.3,0c-0.5-0.4-1.1-2.3-0.6-2.9C-0.8-1.5-0.7-1.4-0.7-1.4L-0.7-1.4z
		"/>
</symbol>
<symbol  id="j" viewBox="-1.3 -2.2 2.6 4.3">
	<path class="st0" d="M1.2-1.2C1.2-1.2,1.2-1.2,1.2-1.2C1.1-1.1,1.1-1,1-0.7c-0.2,1-0.3,1.5-0.8,2C0.1,1.4,0,1.3-0.2,1.2
		c-0.5-0.5-0.9-2.3-0.5-2.7c0.1-0.1,0.2-0.1,0.3,0c0.3,0.4,0.2,1-0.1,1.5c0,0.1,0,0.2,0,0.2c0,0,0,0,0.1,0c0.1-0.1,0.9-1.6,0.2-2.3
		C-0.2-2.2-0.4-2.2-0.6-2C-0.8-1.8-1-1.4-1.2-0.8c-0.2,0.9,0,2.3,0.5,2.8c0.2,0.3,0.5,0.3,0.9,0c0.7-0.7,0.9-1.9,1-2.6
		C1.3-1,1.3-1.2,1.2-1.2L1.2-1.2z"/>
</symbol>
<symbol  id="k" viewBox="-2.3 -3.8 4.7 7.6">
	<path class="st0" d="M2.2,2.6c0.1-0.1,0.2-0.2,0.1-0.2c0,0-0.1,0-0.2,0C1.9,2.6,1.8,2.7,1.7,2.6c0,0-0.4-0.9-0.5-1.4
		c0-0.2-0.1-0.4-0.1-0.6c-0.2-1.3,0-3.6,0.5-4l0,0c0.1-0.1,0.3,0.1,0.4,0c0.1-0.1,0.1-0.3,0-0.3C2-3.8,1.9-3.8,1.7-3.7
		c0,0-0.1,0-0.1,0.1c-1,1-1,1.6-0.9,3.7c0,0.1,0,0.2,0,0.2s-0.1,0-0.1-0.1C0.1-0.1-0.8-0.7-1.2-1c0,0-0.2,0.2-0.4,0.3l-0.6,0.5
		c0,0-0.2,0.1-0.1,0.2c0,0,0.1,0,0.2,0c0.2-0.2,0.4-0.2,0.5-0.1c0.5,0.3,1.1,0.7,1.5,1C0.1,1,0.3,1.2,0.4,1.3c0,0.1,0.1,0.2,0.1,0.2
		c0.1,0.4,0.3,1,0.5,1.6c0,0.2-0.1,0.3-0.2,0.4C0.6,3.6,0.6,3.7,0.7,3.8c0,0,0,0,0.1,0L2.2,2.6z"/>
</symbol>
<symbol  id="l">
</symbol>
<symbol  id="m" viewBox="-2.7 -3.3 5.3 6.6">
	<path class="st0" d="M2.4-1.9C1.9-3.1,0.7-3.6-0.5-3.1c-1.7,0.7-2.7,3.2-1.9,5c0.5,1.2,1.7,1.7,2.9,1.2C2.2,2.3,3.2-0.2,2.4-1.9z
		 M1.7-0.6c0.4,1.4-0.1,2.8-1,3.1C-0.1,2.9-1,2.4-1.5,1.2c-0.7-1.7-0.2-3.4,0.8-3.8c0.7-0.3,1.7,0,2.2,1.3C1.6-1.1,1.7-0.8,1.7-0.6
		L1.7-0.6z"/>
</symbol>
<symbol  id="n" viewBox="-2.3 -3.3 4.6 6.6">
	<path class="st0" d="M1.8-2.5C1.7-2.8,1.5-3,1.2-3.2c-0.3-0.1-0.8-0.1-1.2,0C-1.3-2.9-2.1-2-2-1.4c0.1,0.3,0.3,0.2,0.3,0.2
		c0.3-0.1,0.4-0.4,0.4-0.6c0.1-0.5,0.6-0.8,0.9-0.9C0.1-2.8,0.6-2.6,0.8-2c0.1,0.5-0.2,1.1-1.1,1.5c-0.2,0-0.2,0.2-0.2,0.3
		c0,0.1,0.1,0.2,0.2,0.1h0c0.2-0.1,0.3-0.2,0.5-0.2c0.7-0.2,1,0.5,1,0.8c0.2,1-0.7,2.1-1.5,2.3c-0.3,0.1-0.6,0-0.8-0.1
		c-0.3-0.1-0.4-0.5-0.8-0.4c-0.3,0.1-0.4,0.2-0.4,0.5c0.1,0.3,0.7,0.7,1.8,0.5c1.8-0.4,3.1-1.8,2.8-3C2.1-0.3,1.7-0.6,0.9-0.7
		c-0.1,0-0.2,0-0.2,0c0,0,0,0,0.1-0.1C1.6-1.4,1.9-2,1.8-2.5L1.8-2.5z"/>
</symbol>
<symbol  id="o" viewBox="-0.4 -0.4 0.9 0.8">
	<path class="st0" d="M-0.3,0.3C-0.2,0.4-0.1,0.4,0,0.4c0.1,0,0.2,0,0.3-0.1C0.4,0.2,0.4,0.1,0.4,0c0-0.1-0.1-0.2-0.1-0.3
		C0.2-0.4,0.1-0.4,0-0.4c-0.1,0-0.2,0-0.3,0.1C-0.4-0.2-0.5-0.1-0.4,0C-0.4,0.1-0.4,0.2-0.3,0.3z"/>
</symbol>
<symbol  id="p">
</symbol>
<symbol  id="q">
</symbol>
<symbol  id="r" viewBox="-1.9 -1.8 3.7 3.7">
	<path class="st0" d="M0.7,1.1l-1.1-2.3c-0.1-0.3-0.2-0.5-0.5-0.7l-0.6,2.4C-1.5,0.8-1.6,1-1.9,1.1v0l0.8,0.2v0
		c-0.2-0.2-0.2-0.4-0.1-0.6L-0.7-1l1.2,2.4l0,0.1c0,0.1,0,0.1,0,0.1l0.7,0.2v0C0.9,1.6,1,1.5,1,1.2l0.5-1.7C1.6-0.8,1.6-0.9,1.9-1v0
		L1.1-1.2v0C1.3-1,1.2-0.8,1.2-0.6L0.7,1.1z"/>
</symbol>
<symbol  id="s" viewBox="-1.6 -1.1 3.1 2.2">
	<path class="st0" d="M1.4,1c0.1-0.2,0.2-0.4,0.2-0.7c0.1-0.6-0.1-1.2-0.7-1.2c-1-0.1-1,1.5-1.7,1.4c-0.3,0-0.4-0.4-0.4-0.7
		c0-0.4,0.2-0.7,0.5-1L-1.3-1c-0.1,0.3-0.2,0.5-0.2,0.8C-1.6,0.5-1.2,1-0.7,1.1c0.8,0.1,1-1.5,1.6-1.4c0.3,0,0.4,0.4,0.4,0.6
		c0,0.3-0.2,0.5-0.4,0.7L1.4,1z"/>
</symbol>
<symbol  id="t" viewBox="-1.6 -2.1 3.1 4.1">
	<path class="st0" d="M-0.7,0l2-0.9C1.3-0.9,1.4-1,1.5-1l0-0.8h0C1.3-1.6,1.1-1.6,1-1.6l-1.9-0.2c-0.3,0-0.5,0-0.6-0.2h0l0,0.7h0
		c0.1-0.2,0.3-0.2,0.6-0.2l2,0.2l-2,0.9c-0.3,0.1-0.4,0.2-0.5,0.4l2.7,1l-2.2,0.3c-0.2,0-0.3,0-0.3-0.2h0l0,0.9h0
		C-1.3,1.9-1.2,1.9-1,1.8l2.2-0.4c0.1,0,0.2,0,0.3,0.1h0l0-0.8c-0.1,0-0.2,0-0.3-0.1L-0.7,0z"/>
</symbol>
<symbol  id="u" viewBox="-1.6 -1.2 3.3 2.5">
	<path class="st0" d="M-0.1-0.3L0,0c0,0.1,0,0.3-0.1,0.4v0l0.5-0.1v0c0,0,0-0.1-0.1-0.2L0.3-0.4l0.8-0.1c0,0.2,0.1,0.3,0.1,0.5
		c0,0.2,0,0.4-0.1,0.6v0l0.5-0.1v0c0-0.1-0.1-0.1-0.1-0.2L1.3-1.2l0,0c0,0.2-0.4,0.3-0.6,0.3L-1-0.7c-0.2,0-0.5,0.1-0.7-0.1h0
		l0.3,1.9l0.6,0.1v0C-1,1-1.1,0.7-1.1,0.4l0-0.6L-0.1-0.3z"/>
</symbol>
<symbol  id="v" viewBox="-1.7 -1.1 3.3 2.2">
	<path class="st0" d="M1.1,0.3l0.1,0.4c0,0.1,0.1,0.3-0.1,0.4l0.6,0v0c0,0,0-0.1-0.1-0.2L1.2-0.8l0-0.1c0-0.1,0-0.1,0-0.2v0l-0.6,0
		l0,0C0.7-1,0.8-0.8,0.9-0.6L1-0.2l-2,0.5c-0.2,0-0.5,0.2-0.7,0h0l0.2,0.9h0c0.1-0.3,0.2-0.3,0.5-0.4L1.1,0.3z"/>
</symbol>
<symbol  id="w" viewBox="-1.7 -1.3 3.3 2.5">
	<path class="st0" d="M1.7,0.3c0-0.2-0.1-0.5-0.1-0.7C1.3-0.9,1-1.4,0.4-1.2c-0.9,0.3-0.3,1.8-1,2c-0.3,0.1-0.6-0.2-0.7-0.5
		c-0.1-0.3-0.1-0.7,0-1.1l-0.5,0.3c0,0.3,0,0.6,0.1,0.8c0.3,0.7,0.9,1,1.3,0.9c0.8-0.3,0.3-1.8,0.8-2c0.3-0.1,0.5,0.2,0.6,0.4
		c0.1,0.2,0.1,0.5,0,0.8L1.7,0.3z"/>
</symbol>
<symbol  id="x" viewBox="-1.7 -1.5 3.5 2.9">
	<path class="st0" d="M-0.3,0.7l2,0.3L1.4,0.3c0,0.3-0.3,0.3-0.4,0.3L0,0.4l0.8-1.2c0-0.1,0-0.2,0-0.4L0.6-1.5
		c0,0.3-0.1,0.4-0.2,0.6l-0.8,1.2l-0.6,0.3c-0.2,0.1-0.5,0.2-0.7,0.1h0l0.4,0.8h0c0-0.3,0.2-0.3,0.4-0.5L-0.3,0.7z"/>
</symbol>
<symbol  id="y" viewBox="-1.7 -1.4 3.5 2.7">
	<path class="st0" d="M1.7,0C1.6-0.2,1.6-0.5,1.4-0.7C1.2-1.2,0.7-1.5,0.2-1.3c-0.8,0.5,0.1,1.8-0.5,2.1C-0.6,1-1,0.8-1.1,0.6
		c-0.2-0.3-0.3-0.7-0.2-1l-0.4,0.4c0,0.3,0.2,0.5,0.3,0.8c0.4,0.6,1,0.8,1.5,0.6C0.8,0.8,0-0.5,0.5-0.8C0.8-1,1-0.7,1.1-0.5
		C1.3-0.3,1.3,0,1.3,0.2L1.7,0z"/>
</symbol>
<symbol  id="z">
</symbol>
<g>
	
		<use xlink:href="#bm"  width="3.7" height="8.4" x="-1.9" y="-4.2" transform="matrix(2.3297 0 0 2.3297 102.6511 75.7381)" style="overflow:visible;"/>
	
		<use xlink:href="#bl"  width="5.5" height="8.5" x="-2.7" y="-4.2" transform="matrix(2.3297 0 0 2.3297 102.7417 100.6538)" style="overflow:visible;"/>
	
		<use xlink:href="#bk"  width="6.7" height="8.5" x="-3.3" y="-4.2" transform="matrix(2.3297 0 0 2.3297 102.7862 125.6795)" style="overflow:visible;"/>
	
		<use xlink:href="#bj"  width="6.9" height="8.8" x="-3.5" y="-4.4" transform="matrix(2.3297 0 0 2.3297 102.6834 150.6869)" style="overflow:visible;"/>
</g>
<use xlink:href="#ay"  width="-32766" height="-32766" x="16383" y="16383" transform="matrix(2.3297 0 0 2.3297 -17793.4102 20446.1621)" style="overflow:visible;"/>
<use xlink:href="#an"  width="-32766" height="-32766" x="16383" y="16383" transform="matrix(2.3297 0 0 2.3297 -17797.5371 20446.0117)" style="overflow:visible;"/>
<g>
	
		<use xlink:href="#ac"  width="1.3" height="3" x="-0.7" y="-1.5" transform="matrix(2.3297 0 0 2.3297 88.7423 170.7892)" style="overflow:visible;"/>
	
		<use xlink:href="#r"  width="3.7" height="3.7" x="-1.9" y="-1.8" transform="matrix(2.3297 0 0 2.3297 82.1294 169.3905)" style="overflow:visible;"/>
	
		<use xlink:href="#g"  width="2.6" height="3.3" x="-1.3" y="-1.7" transform="matrix(2.3297 0 0 2.3297 73.9373 167.4762)" style="overflow:visible;"/>
	
		<use xlink:href="#c"  width="2.9" height="3.5" x="-1.4" y="-1.7" transform="matrix(2.3297 0 0 2.3297 68.8894 164.6611)" style="overflow:visible;"/>
	
		<use xlink:href="#b"  width="3.1" height="3.9" x="-1.5" y="-2" transform="matrix(2.3297 0 0 2.3297 62.4787 160.8563)" style="overflow:visible;"/>
	
		<use xlink:href="#a"  width="4.3" height="4.2" x="-2.2" y="-2.1" transform="matrix(2.3297 0 0 2.3297 55.5362 156.5641)" style="overflow:visible;"/>
	
		<use xlink:href="#bi"  width="3.5" height="3.6" x="-1.7" y="-1.8" transform="matrix(2.3297 0 0 2.3297 49.9304 149.4432)" style="overflow:visible;"/>
	
		<use xlink:href="#bh"  width="3.4" height="3" x="-1.7" y="-1.5" transform="matrix(2.3297 0 0 2.3297 43.5004 145.7183)" style="overflow:visible;"/>
	
		<use xlink:href="#bg"  width="3" height="2.4" x="-1.5" y="-1.2" transform="matrix(2.3297 0 0 2.3297 40.9747 140.9462)" style="overflow:visible;"/>
	
		<use xlink:href="#bf"  width="3.3" height="3.3" x="-1.6" y="-1.6" transform="matrix(2.3297 0 0 2.3297 36.7311 134.5062)" style="overflow:visible;"/>
	
		<use xlink:href="#be"  width="3.9" height="3.7" x="-2" y="-1.9" transform="matrix(2.3297 0 0 2.3297 33.3141 126.6837)" style="overflow:visible;"/>
	
		<use xlink:href="#bd"  width="3.4" height="3.2" x="-1.7" y="-1.6" transform="matrix(2.3297 0 0 2.3297 30.9888 117.0563)" style="overflow:visible;"/>
	
		<use xlink:href="#bc"  width="3.1" height="2.4" x="-1.5" y="-1.2" transform="matrix(2.3297 0 0 2.3297 29.2827 109.968)" style="overflow:visible;"/>
</g>
<use xlink:href="#bb"  width="-32766" height="-32766" x="16383" y="16383" transform="matrix(2.3297 0 0 2.3297 -17860.1797 20383.8047)" style="overflow:visible;"/>
<g>
	
		<use xlink:href="#ba"  width="3" height="1.8" x="-1.5" y="-0.9" transform="matrix(2.3297 0 0 2.3297 28.499 99.3508)" style="overflow:visible;"/>
	
		<use xlink:href="#az"  width="3.2" height="3.3" x="-1.6" y="-1.7" transform="matrix(2.3297 0 0 2.3297 28.7638 91.5285)" style="overflow:visible;"/>
	
		<use xlink:href="#ax"  width="3.6" height="3.1" x="-1.8" y="-1.5" transform="matrix(2.3297 0 0 2.3297 30.8121 82.3464)" style="overflow:visible;"/>
	
		<use xlink:href="#aw"  width="4" height="3.9" x="-2" y="-2" transform="matrix(2.3297 0 0 2.3297 33.6483 74.2175)" style="overflow:visible;"/>
	
		<use xlink:href="#av"  width="3.4" height="3.4" x="-1.7" y="-1.7" transform="matrix(2.3297 0 0 2.3297 36.6931 66.2179)" style="overflow:visible;"/>
	
		<use xlink:href="#au"  width="3.7" height="3.2" x="-1.9" y="-1.6" transform="matrix(2.3297 0 0 2.3297 42.8599 60.0275)" style="overflow:visible;"/>
	
		<use xlink:href="#at"  width="3.3" height="3.2" x="-1.7" y="-1.6" transform="matrix(2.3297 0 0 2.3297 45.9544 52.4999)" style="overflow:visible;"/>
	
		<use xlink:href="#as"  width="2.8" height="2.7" x="-1.4" y="-1.3" transform="matrix(2.3297 0 0 2.3297 50.0519 49.3819)" style="overflow:visible;"/>
	
		<use xlink:href="#ar"  width="3.3" height="3.3" x="-1.7" y="-1.6" transform="matrix(2.3297 0 0 2.3297 54.6715 44.2748)" style="overflow:visible;"/>
	
		<use xlink:href="#aq"  width="4.1" height="4.1" x="-2" y="-2.1" transform="matrix(2.3297 0 0 2.3297 62.8944 39.2111)" style="overflow:visible;"/>
</g>
<use xlink:href="#ap"  width="-32766" height="-32766" x="16383" y="16383" transform="matrix(2.3297 0 0 2.3297 -17823.2383 20317.7051)" style="overflow:visible;"/>
<g>
	
		<use xlink:href="#ao"  width="2" height="3.4" x="-1" y="-1.7" transform="matrix(2.3297 0 0 2.3297 72.7571 33.8059)" style="overflow:visible;"/>
	
		<use xlink:href="#am"  width="3.4" height="3.1" x="-1.7" y="-1.6" transform="matrix(2.3297 0 0 2.3297 80.5784 30.8181)" style="overflow:visible;"/>
	
		<use xlink:href="#al"  width="3.2" height="3.1" x="-1.6" y="-1.5" transform="matrix(2.3297 0 0 2.3297 90.1178 29.4256)" style="overflow:visible;"/>
</g>
<use xlink:href="#ak"  width="-32766" height="-32766" x="16383" y="16383" transform="matrix(2.3297 0 0 2.3297 -17798.4375 20310.2871)" style="overflow:visible;"/>
<g>
	
		<use xlink:href="#aj"  width="2.2" height="3" x="-1.1" y="-1.5" transform="matrix(2.3297 0 0 2.3297 100.9984 28.5221)" style="overflow:visible;"/>
	
		<use xlink:href="#ai"  width="2.2" height="3.1" x="-1.1" y="-1.6" transform="matrix(2.3297 0 0 2.3297 107.7373 28.9069)" style="overflow:visible;"/>
	
		<use xlink:href="#ah"  width="2.3" height="3.3" x="-1.1" y="-1.6" transform="matrix(2.3297 0 0 2.3297 114.4971 29.9595)" style="overflow:visible;"/>
	
		<use xlink:href="#ag"  width="2.9" height="3.2" x="-1.4" y="-1.6" transform="matrix(2.3297 0 0 2.3297 121.8287 31.6902)" style="overflow:visible;"/>
	
		<use xlink:href="#af"  width="2.8" height="3.3" x="-1.4" y="-1.7" transform="matrix(2.3297 0 0 2.3297 129.5145 34.0005)" style="overflow:visible;"/>
	
		<use xlink:href="#ae"  width="3.4" height="3.2" x="-1.7" y="-1.6" transform="matrix(2.3297 0 0 2.3297 135.374 37.39)" style="overflow:visible;"/>
	
		<use xlink:href="#ad"  width="3.2" height="4" x="-1.6" y="-2" transform="matrix(2.3297 0 0 2.3297 142.7122 43.0414)" style="overflow:visible;"/>
	
		<use xlink:href="#ab"  width="3.5" height="3.6" x="-1.7" y="-1.8" transform="matrix(2.3297 0 0 2.3297 148.1873 48.8727)" style="overflow:visible;"/>
	
		<use xlink:href="#aa"  width="2.9" height="3.3" x="-1.4" y="-1.7" transform="matrix(2.3297 0 0 2.3297 154.0498 53.6918)" style="overflow:visible;"/>
</g>
<use xlink:href="#z"  width="-32766" height="-32766" x="16383" y="16383" transform="matrix(2.3297 0 0 2.3297 -17737.7715 20336.9707)" style="overflow:visible;"/>
<g>
	
		<use xlink:href="#y"  width="3.5" height="2.7" x="-1.7" y="-1.4" transform="matrix(2.3297 0 0 2.3297 161.2862 62.3629)" style="overflow:visible;"/>
	
		<use xlink:href="#x"  width="3.5" height="2.9" x="-1.7" y="-1.5" transform="matrix(2.3297 0 0 2.3297 165.1788 68.2063)" style="overflow:visible;"/>
	
		<use xlink:href="#w"  width="3.3" height="2.5" x="-1.7" y="-1.3" transform="matrix(2.3297 0 0 2.3297 167.2778 75.1981)" style="overflow:visible;"/>
	
		<use xlink:href="#v"  width="3.3" height="2.2" x="-1.7" y="-1.1" transform="matrix(2.3297 0 0 2.3297 169.4912 81.1542)" style="overflow:visible;"/>
	
		<use xlink:href="#u"  width="3.3" height="2.5" x="-1.6" y="-1.2" transform="matrix(2.3297 0 0 2.3297 170.5705 88.347)" style="overflow:visible;"/>
	
		<use xlink:href="#t"  width="3.1" height="4.1" x="-1.6" y="-2.1" transform="matrix(2.3297 0 0 2.3297 171.3917 97.3635)" style="overflow:visible;"/>
	
		<use xlink:href="#s"  width="3.1" height="2.2" x="-1.6" y="-1.1" transform="matrix(2.3297 0 0 2.3297 170.9524 105.8973)" style="overflow:visible;"/>
</g>
<use xlink:href="#q"  width="-32766" height="-32766" x="16383" y="16383" transform="matrix(2.3297 0 0 2.3297 -17725.1914 20387.668)" style="overflow:visible;"/>
<path class="st1" d="M100.4,41.4C58,60.9,37.3,137.2,75.3,156.2 M46.4,63.4c-5.7,6.7-2.5,22.5,44.4,28.1 M114.5,91.5
	c6.1-0.9,48.4-5,37.6-29.1 M50.6,128.2c2.2,1.8,22.2,8.3,38.4,9 M68.6,45.2c-5.8,13.1,27.1,22.5,48.9,14.7
	c14.2-5.1,21-13.8,0.2-20.6 M69.7,52.1c-3.6,1.7-47,34.7-24,79.5 M90.8,62.3c-1.5,2.5-14.5,63.7-1.7,97.5"/>
<use xlink:href="#p"  width="-32766" height="-32766" x="16383" y="16383" transform="matrix(2.3297 0 0 2.3297 -17801.5977 20459.5137)" style="overflow:visible;"/>
<g>
	
		<use xlink:href="#o"  width="0.9" height="0.8" x="-0.4" y="-0.4" transform="matrix(2.3297 0 0 2.3297 102.7934 170.9625)" style="overflow:visible;"/>
	
		<use xlink:href="#n"  width="4.6" height="6.6" x="-2.3" y="-3.3" transform="matrix(2.3297 0 0 2.3297 117.3376 167.3177)" style="overflow:visible;"/>
	
		<use xlink:href="#m"  width="5.3" height="6.6" x="-2.7" y="-3.3" transform="matrix(2.3297 0 0 2.3297 129.1872 162.1478)" style="overflow:visible;"/>
</g>
<use xlink:href="#l"  width="-32766" height="-32766" x="16383" y="16383" transform="matrix(2.3297 0 0 2.3297 -17750.875 20444.1602)" style="overflow:visible;"/>
<g>
	
		<use xlink:href="#k"  width="4.7" height="7.6" x="-2.3" y="-3.8" transform="matrix(2.3297 0 0 2.3297 144.6666 151.4443)" style="overflow:visible;"/>
	
		<use xlink:href="#j"  width="2.6" height="4.3" x="-1.3" y="-2.2" transform="matrix(2.3297 0 0 2.3297 153.1848 149.9331)" style="overflow:visible;"/>
	
		<use xlink:href="#i"  width="3.2" height="5.1" x="-1.6" y="-2.5" transform="matrix(2.3297 0 0 2.3297 157.9297 143.9656)" style="overflow:visible;"/>
	
		<use xlink:href="#h"  width="2.5" height="4.5" x="-1.2" y="-2.3" transform="matrix(2.3297 0 0 2.3297 162.3027 137.3596)" style="overflow:visible;"/>
	
		<use xlink:href="#f"  width="2.6" height="4" x="-1.3" y="-2" transform="matrix(2.3297 0 0 2.3297 166.4309 132.089)" style="overflow:visible;"/>
</g>
<use xlink:href="#e"  width="-32766" height="-32766" x="16383" y="16383" transform="matrix(2.3297 0 0 2.3297 -17713.1602 20411.3047)" style="overflow:visible;"/>
<use xlink:href="#d"  width="0.8" height="0.9" x="-0.4" y="-0.4" transform="matrix(2.3297 0 0 2.3297 170.5171 121.4809)" style="overflow:visible;"/>
<path class="st1" d="M119.3,134.9c6.5-0.3,38.7-6.6,42.9-21.3"/>
</svg>
