<?xml version="1.0" encoding="utf-8"?>
<!-- Generator: Adobe Illustrator 22.1.0, SVG Export Plug-In . SVG Version: 6.00 Build 0)  -->
<svg version="1.1" id="Layer_1" xmlns="http://www.w3.org/2000/svg" xmlns:xlink="http://www.w3.org/1999/xlink" x="0px" y="0px"
	 viewBox="0 0 72 74.8" style="enable-background:new 0 0 72 74.8;" xml:space="preserve">
<style type="text/css">
	.st0{fill:#0054A6;}
	.st1{fill:#EF413D;}
</style>
<g>
	<polygon class="st0" points="28.8,0 8.4,0 28.8,11.6 	"/>
	<polygon class="st1" points="24,13.7 18.4,13.7 0,3.2 0,0 	"/>
	<polygon class="st0" points="15.7,13.7 0,13.7 0,4.8 	"/>
	<polygon class="st0" points="43.1,0 63.5,0 43.1,11.6 	"/>
	<polygon class="st0" points="56.3,13.7 72,13.7 72,4.8 	"/>
	<polygon class="st1" points="48,13.7 43.1,13.7 43.1,13.2 66.4,0 72,0 	"/>
	<polygon class="st0" points="43.1,41.1 63.5,41.1 43.1,29.5 	"/>
	<polygon class="st1" points="48,27.4 53.5,27.4 72,37.9 72,41.1 	"/>
	<polygon class="st0" points="56.3,27.4 72,27.4 72,36.3 	"/>
	<polygon class="st0" points="28.8,41.1 8.4,41.1 28.8,29.5 	"/>
	<polygon class="st0" points="15.7,27.4 0,27.4 0,36.3 	"/>
	<polygon class="st1" points="23.9,27.4 28.8,27.4 28.8,27.9 5.5,41.1 0,41.1 	"/>
	<polygon class="st1" points="72,16.2 40.3,16.2 40.3,0 31.7,0 31.7,16.2 0,16.2 0,24.9 31.7,24.9 31.7,41.1 40.3,41.1 40.3,24.9 
		72,24.9 	"/>
	<g>
		<path class="st0" d="M3.5,50.5v9.9c0,2.4,1,3.7,3.3,3.7c2.4,0,3.2-1.4,3.2-3.7v-9.9h3.4v9.8c0,4.2-2.2,6.3-6.6,6.3
			c-4.4,0-6.5-2.1-6.5-6.2v-9.9H3.5z"/>
		<path class="st0" d="M16.5,50.5h3.3v7.3c1.5-1.8,4.4-5.1,6.3-7.3h4L24,57l6.4,9.4h-4l-4.7-7.3L19.8,61v5.4h-3.3V50.5z"/>
	</g>
	<g>
		<path class="st1" d="M46,62.4c0,1.5,0.1,3.4,0.2,3.8h-3.6c-0.1-0.3-0.2-1.1-0.2-1.7c-0.6,0.9-1.7,2-4.5,2c-3.7,0-5.3-2.4-5.3-4.8
			c0-3.5,2.8-5.1,7.4-5.1c0.9,0,1.8,0,2.4,0v-1.1c0-1.2-0.4-2.5-2.7-2.5c-2.1,0-2.5,0.9-2.7,2.1h-3.6c0.2-2.5,1.8-4.9,6.5-4.8
			c4.1,0,6.3,1.6,6.3,5.2V62.4z M42.3,59c-0.4,0-1.4,0-2,0c-2.8,0-4,0.8-4,2.5c0,1.3,0.8,2.3,2.5,2.3c3.1,0,3.5-2.1,3.5-4.4V59z"/>
		<path class="st1" d="M50.1,44.2h3.8v3.7h-3.8V44.2z M50.1,50.7h3.8v15.5h-3.8V50.7z"/>
		<path class="st1" d="M72,44.2v17.7c0,1.4,0,2.9,0,4.3h-3.6c-0.1-0.4-0.2-1.4-0.2-1.8c-0.8,1.4-2.2,2.2-4.6,2.2c-4,0-6.5-3.2-6.5-8
			c0-4.8,2.7-8.2,7.1-8.2c2.4,0,3.6,0.9,4,1.6v-7.8H72z M61,58.5c0,3.3,1.4,5,3.6,5c3.2,0,3.7-2.5,3.7-5.1c0-2.9-0.5-5-3.6-5
			C62.3,53.4,61,55.3,61,58.5z"/>
	</g>
	<g>
		<path class="st0" d="M0.6,73.4v-2.8H0.1v-0.6h0.5v-0.3c0-0.7,0.3-1.2,1.1-1.2c0.2,0,0.3,0,0.4,0v0.7c-0.1,0-0.2,0-0.2,0
			c-0.3,0-0.4,0.1-0.4,0.6v0.3h0.7v0.6H1.5v2.8H0.6z"/>
		<path class="st0" d="M2.6,70.9c0-0.4,0-0.7,0-0.9h0.8c0,0.1,0,0.4,0,0.6c0.2-0.4,0.6-0.7,1.2-0.7v0.8c-0.7,0-1.2,0.2-1.2,1.2v1.6
			H2.6V70.9z"/>
		<path class="st0" d="M8.4,71.7c0,1-0.6,1.8-1.7,1.8c-1.1,0-1.7-0.8-1.7-1.8c0-1.1,0.6-1.8,1.8-1.8C7.7,69.8,8.4,70.6,8.4,71.7z
			 M5.8,71.7c0,0.7,0.3,1.2,0.9,1.2c0.5,0,0.8-0.4,0.8-1.1c0-0.7-0.3-1.2-0.9-1.2C6.1,70.5,5.8,70.9,5.8,71.7z"/>
		<path class="st0" d="M9.1,70.8c0-0.3,0-0.6,0-0.9h0.8c0,0.1,0,0.3,0,0.5c0.2-0.3,0.5-0.5,1-0.5c0.5,0,0.8,0.3,0.9,0.6
			c0.2-0.3,0.5-0.6,1.1-0.6c0.6,0,1.1,0.4,1.1,1.3v2.3h-0.8v-2.2c0-0.3-0.1-0.7-0.6-0.7c-0.5,0-0.7,0.3-0.7,0.9v2h-0.8v-2.2
			c0-0.4-0.1-0.7-0.6-0.7c-0.5,0-0.7,0.3-0.7,0.9v1.9H9.1V70.8z"/>
		<path class="st0" d="M16.4,69.9H17v-1h0.9v1h0.7v0.6h-0.7v1.8c0,0.3,0.1,0.4,0.4,0.4c0.1,0,0.2,0,0.3,0v0.6
			c-0.2,0.1-0.4,0.1-0.6,0.1c-0.6,0-0.9-0.3-0.9-0.9v-1.9h-0.6V69.9z"/>
		<path class="st0" d="M20,68.5v1.9c0.2-0.3,0.5-0.5,1-0.5c0.6,0,1.2,0.4,1.2,1.3v2.2h-0.9v-2.1c0-0.5-0.2-0.8-0.6-0.8
			c-0.6,0-0.7,0.4-0.7,1v1.9h-0.9v-5H20z"/>
		<path class="st0" d="M23.8,71.8c0,0.5,0.3,1,0.8,1c0.5,0,0.6-0.2,0.7-0.4h0.9c-0.1,0.4-0.5,1.1-1.6,1.1c-1.2,0-1.6-0.9-1.6-1.8
			c0-1.1,0.6-1.9,1.7-1.9c1.2,0,1.6,0.9,1.6,1.7c0,0.1,0,0.2,0,0.3H23.8z M25.4,71.3c0-0.5-0.2-0.8-0.7-0.8c-0.5,0-0.7,0.4-0.8,0.8
			H25.4z"/>
		<path class="st0" d="M28.8,68.7h2c1.1,0,1.6,0.6,1.6,1.2c0,0.5-0.3,0.9-0.6,1c0.3,0.1,0.8,0.4,0.8,1.1c0,0.8-0.7,1.4-1.6,1.4h-2.1
			V68.7z M30.7,70.6c0.6,0,0.8-0.2,0.8-0.6c0-0.4-0.3-0.6-0.7-0.6h-1.1v1.2H30.7z M29.6,72.7h1c0.6,0,0.9-0.2,0.9-0.7
			c0-0.4-0.3-0.7-0.9-0.7h-1V72.7z"/>
		<path class="st0" d="M33.2,70.9c0-0.4,0-0.7,0-0.9H34c0,0.1,0,0.4,0,0.6c0.2-0.4,0.6-0.7,1.2-0.7v0.8c-0.7,0-1.2,0.2-1.2,1.2v1.6
			h-0.9V70.9z"/>
		<path class="st0" d="M35.8,68.5h0.9v0.8h-0.9V68.5z M35.8,69.9h0.9v3.5h-0.9V69.9z"/>
		<path class="st0" d="M37.2,69.9h0.6v-1h0.9v1h0.7v0.6h-0.7v1.8c0,0.3,0.1,0.4,0.4,0.4c0.1,0,0.2,0,0.3,0v0.6
			c-0.2,0.1-0.4,0.1-0.6,0.1c-0.6,0-0.9-0.3-0.9-0.9v-1.9h-0.6V69.9z"/>
		<path class="st0" d="M40,68.5h0.9v0.8H40V68.5z M40,69.9h0.9v3.5H40V69.9z"/>
		<path class="st0" d="M42.3,72.4c0.1,0.3,0.3,0.5,0.7,0.5c0.4,0,0.6-0.2,0.6-0.4c0-0.3-0.2-0.4-0.7-0.5c-1.1-0.3-1.3-0.6-1.3-1.1
			c0-0.5,0.4-1,1.4-1c1,0,1.4,0.6,1.4,1h-0.8c0-0.2-0.2-0.4-0.6-0.4c-0.4,0-0.5,0.2-0.5,0.4c0,0.2,0.1,0.3,0.7,0.4
			c1.2,0.3,1.3,0.6,1.3,1.2c0,0.6-0.5,1.1-1.5,1.1c-1,0-1.5-0.5-1.6-1.1H42.3z"/>
		<path class="st0" d="M46,68.5v1.9c0.2-0.3,0.5-0.5,1-0.5c0.6,0,1.2,0.4,1.2,1.3v2.2h-0.9v-2.1c0-0.5-0.2-0.8-0.6-0.8
			c-0.6,0-0.7,0.4-0.7,1v1.9h-0.9v-5H46z"/>
		<path class="st0" d="M51.8,73.1v1.7h-0.9v-4c0-0.3,0-0.6,0-0.8h0.8c0,0.1,0,0.3,0,0.5c0.2-0.3,0.5-0.6,1.1-0.6
			c0.8,0,1.4,0.7,1.4,1.7c0,1.2-0.7,1.9-1.6,1.9C52.2,73.5,51.9,73.3,51.8,73.1z M53.4,71.6c0-0.7-0.3-1.1-0.8-1.1
			c-0.6,0-0.8,0.4-0.8,1.1c0,0.7,0.2,1.1,0.8,1.1C53.1,72.8,53.4,72.4,53.4,71.6z"/>
		<path class="st0" d="M55.7,71.8c0,0.5,0.3,1,0.8,1c0.5,0,0.6-0.2,0.7-0.4H58c-0.1,0.4-0.5,1.1-1.6,1.1c-1.2,0-1.6-0.9-1.6-1.8
			c0-1.1,0.6-1.9,1.7-1.9c1.2,0,1.6,0.9,1.6,1.7c0,0.1,0,0.2,0,0.3H55.7z M57.2,71.3c0-0.5-0.2-0.8-0.7-0.8c-0.5,0-0.7,0.4-0.8,0.8
			H57.2z"/>
		<path class="st0" d="M62.1,71.7c0,1-0.6,1.8-1.7,1.8c-1.1,0-1.7-0.8-1.7-1.8c0-1.1,0.6-1.8,1.8-1.8C61.4,69.8,62.1,70.6,62.1,71.7
			z M59.5,71.7c0,0.7,0.3,1.2,0.9,1.2c0.5,0,0.8-0.4,0.8-1.1c0-0.7-0.3-1.2-0.9-1.2C59.8,70.5,59.5,70.9,59.5,71.7z"/>
		<path class="st0" d="M63.6,73.1v1.7h-0.9v-4c0-0.3,0-0.6,0-0.8h0.8c0,0.1,0,0.3,0,0.5c0.2-0.3,0.5-0.6,1.1-0.6
			c0.8,0,1.4,0.7,1.4,1.7c0,1.2-0.7,1.9-1.6,1.9C64.1,73.5,63.8,73.3,63.6,73.1z M65.3,71.6c0-0.7-0.3-1.1-0.8-1.1
			c-0.6,0-0.8,0.4-0.8,1.1c0,0.7,0.2,1.1,0.8,1.1C65,72.8,65.3,72.4,65.3,71.6z"/>
		<path class="st0" d="M66.9,73.4v-5h0.9v5H66.9z"/>
		<path class="st0" d="M69.3,71.8c0,0.5,0.3,1,0.8,1c0.5,0,0.6-0.2,0.7-0.4h0.9c-0.1,0.4-0.5,1.1-1.6,1.1c-1.2,0-1.6-0.9-1.6-1.8
			c0-1.1,0.6-1.9,1.7-1.9c1.2,0,1.6,0.9,1.6,1.7c0,0.1,0,0.2,0,0.3H69.3z M70.9,71.3c0-0.5-0.2-0.8-0.7-0.8c-0.5,0-0.7,0.4-0.8,0.8
			H70.9z"/>
	</g>
</g>
</svg>
