<svg width="48" height="48" viewBox="0 0 48 48" fill="none" xmlns="http://www.w3.org/2000/svg">
<g clip-path="url(#clip0)">
<path d="M0 24C0 10.7452 10.7452 0 24 0C37.2548 0 48 10.7452 48 24C48 33.9124 41.9907 42.4212 33.4164 46.0822C30.5253 47.3167 29.33 42.75 25.9875 42.75C23.5568 42.75 19.2231 47.6387 17.012 46.9668C7.16559 43.9747 0 34.8242 0 24Z" fill="#B5E9EC"/>
<path d="M47.9644 25.3038L33.8876 11.2532C33.5045 10.8429 32.9587 10.5863 32.3531 10.5863C31.1934 10.5863 30.2531 11.5266 30.2531 12.6863V15.4921L21.3398 6.57906C20.883 6.09513 20.2357 5.79297 19.5178 5.79297C18.8259 5.79297 18.1997 6.07328 17.7459 6.52703C17.2922 6.98078 17.0119 7.60703 17.0119 8.29891V13.4063L13.8742 10.3796L8.9054 15.8331L11.2602 18.2079L10.7101 20.528L12.4005 22.2137C11.0224 21.9992 9.88603 22.2841 9.41709 23.0232C9.17381 23.4065 8.99606 24.1532 10.0861 25.2267L15.3912 30.492C16.1624 31.5021 16.7425 32.4892 17.0118 33.3788V46.9653C17.0593 46.9798 17.1071 46.9937 17.1548 47.0079C17.3786 47.0741 17.6035 47.1373 17.8298 47.1974V47.1979C19.799 47.7203 23.8541 42.7501 25.9875 42.7501C29.33 42.7501 30.5253 47.3168 33.4164 46.0822C41.612 42.5827 47.4638 34.6538 47.9644 25.3038Z" fill="#5DD7DE"/>
<path d="M40.5486 21.7915L34.9688 27.9156H38.1535L36.9954 33.1878L41.5223 26.6868H38.8642L40.5486 21.7915Z" fill="#FFD400"/>
<path d="M13.8742 10.3799L8.9054 15.8334H11.8234L10.7101 20.5283L14.7413 14.7393H12.3742L13.8742 10.3799Z" fill="#FFED97"/>
<path d="M34.4531 12.6864V19.3558L33.4162 33.243V46.082C31.9256 46.7186 30.3581 47.208 28.7297 47.5333H19.2694C18.5025 47.3805 17.7497 47.1911 17.0119 46.9661V33.3789C16.2966 31.0155 13.3884 27.9639 10.5253 25.6192C8.955 24.3339 9.14531 23.4517 9.41719 23.0233C10.1541 21.8617 12.5391 21.8205 14.9212 23.0795C15.5325 23.403 16.4119 23.8858 17.0119 24.3386V8.29891C17.0119 7.60703 17.2922 6.98078 17.7459 6.52703C18.1997 6.07328 18.8259 5.79297 19.5178 5.79297C20.9016 5.79297 22.0237 6.91516 22.0237 8.29891V17.4433C22.5431 17.013 23.19 16.7777 23.8622 16.7777C24.6675 16.7777 25.4325 17.117 25.9875 17.7142C26.4975 17.3139 27.1237 17.0945 27.7697 17.0945C28.7784 17.0945 29.7141 17.6298 30.2531 18.5036V12.6864C30.2531 11.5267 31.1934 10.5864 32.3531 10.5864C33.5128 10.5864 34.4531 11.5267 34.4531 12.6864Z" fill="#FFDBA9"/>
<path d="M34.4541 19.3567L33.4162 33.243V46.0821C31.9256 46.7186 30.3581 47.208 28.7297 47.5333H25.9875V17.7142C26.4975 17.3139 27.1237 17.0946 27.7687 17.0946C28.7784 17.0946 29.714 17.6299 30.2522 18.5027C30.2522 18.5027 30.2522 18.5027 30.2531 18.5027V12.6864C30.2531 12.1071 30.4884 11.5821 30.8681 11.2014C31.2487 10.8217 31.7737 10.5864 32.3531 10.5864C33.5128 10.5864 34.4531 11.5267 34.4531 12.6864V19.3549L34.4541 19.3567Z" fill="#FFC473"/>
<path d="M33.4162 35.1143V46.0821C31.1044 47.0693 28.605 47.7039 25.9875 47.9186C25.3322 47.973 24.6694 48.0002 24 48.0002C21.5691 48.0002 19.2225 47.6383 17.0119 46.9661V35.1143H33.4162Z" fill="#5DD7DE"/>
<path d="M33.4162 35.1143V46.0821C31.1044 47.0693 28.605 47.7039 25.9875 47.9186V35.1143H33.4162Z" fill="#B5E9EC"/>
<path d="M17.7579 10.586H21.3399V8.30662C21.3399 7.31747 20.5381 6.51562 19.5489 6.51562C18.5598 6.51562 17.7579 7.31747 17.7579 8.30662V10.586Z" fill="#FFA573"/>
<path d="M33.887 14.4375H30.8556V12.7188C30.8556 11.8817 31.5341 11.2031 32.3712 11.2031C33.2083 11.2031 33.8869 11.8817 33.8869 12.7188V14.4375H33.887Z" fill="#FFA573"/>
<path d="M11.821 23.9239C11.2291 23.332 10.2695 23.332 9.67753 23.9239C9.56063 24.0408 9.46772 24.1724 9.39703 24.3123C9.57478 24.6859 9.91781 25.1225 10.5249 25.6195C11.0101 26.0167 11.4962 26.4345 11.973 26.8654L13.3678 25.4706L11.821 23.9239Z" fill="#FFA573"/>
</g>
<defs>
<clipPath id="clip0">
<rect width="48" height="48" fill="white"/>
</clipPath>
</defs>
</svg>
