<svg width="40" height="47" viewBox="0 0 40 47" fill="none" xmlns="http://www.w3.org/2000/svg">
<path d="M7.24658 22.7339L13.9955 15.8443L20.7445 22.7339L13.9955 29.6235L7.24658 22.7339Z" fill="#D6393B"/>
<path d="M13.25 28.8594L11.0909 31.0634C10.7116 31.4504 10.2094 31.6864 9.6747 31.7291C9.14003 31.7717 8.608 31.6181 8.17438 31.296C8.08037 31.2253 7.99168 31.1476 7.90907 31.0634L7.09439 30.2318L6.56469 29.691L5.84094 28.9522C5.72735 28.8364 5.62644 28.7084 5.54 28.5704C5.262 28.1293 5.14025 27.6044 5.195 27.083C5.24975 26.5615 5.4777 26.0749 5.84095 25.704L8.00001 23.5L13.25 28.8594Z" fill="#E94042"/>
<path d="M24.5 6.65648L29.75 12.0159C30.0455 11.7142 30.2799 11.3561 30.4398 10.962C30.5997 10.5679 30.682 10.1456 30.682 9.71898C30.682 9.29241 30.5997 8.87002 30.4398 8.47592C30.2799 8.08182 30.0455 7.72373 29.75 7.4221L29 6.65648C28.7045 6.35485 28.3537 6.11558 27.9677 5.95234C27.5816 5.7891 27.1679 5.70508 26.75 5.70508C26.3321 5.70508 25.9184 5.7891 25.5323 5.95234C25.1463 6.11558 24.7955 6.35485 24.5 6.65648Z" fill="#D6393B"/>
<path d="M20 21.9688C21.1737 20.7706 22.5911 19.8505 24.1518 19.2737C25.7126 18.6968 27.3785 18.4774 29.0315 18.6308L32 18.9062L17.75 4.35938L18.0199 7.3897C18.1701 9.0772 17.9551 10.7778 17.3901 12.371C16.825 13.9643 15.9237 15.4112 14.75 16.6094L20 21.9688Z" fill="#C9D9E5"/>
<path d="M19.6215 1.68332C19.0003 1.04913 17.9931 1.04912 17.3718 1.68328C16.7506 2.31745 16.7506 3.34565 17.3719 3.97984L32.3695 19.2899C32.9908 19.9241 33.998 19.9241 34.6192 19.29C35.2404 18.6558 35.2404 17.6276 34.6192 16.9934L19.6215 1.68332Z" fill="#E94042"/>
<path d="M8.34873 27.87L6.56467 29.6912L5.84092 28.9524C5.72733 28.8366 5.62642 28.7086 5.53998 28.5705L7.28748 26.7866L8.34873 27.87Z" fill="#D6393B"/>
<path d="M10.0306 29.4012L8.17435 31.2962C8.08034 31.2255 7.99166 31.1478 7.90904 31.0636L7.09436 30.2319L8.96936 28.3179L10.0306 29.4012Z" fill="#D6393B"/>
<path d="M31.1591 36.6086L25.5603 42.324C24.8812 43.017 23.9603 43.4063 23 43.4064C22.0397 43.4064 21.1188 43.7958 20.4397 44.4888L20 44.9376L12.5 37.2814L12.9397 36.8325C13.2759 36.4893 13.5425 36.0818 13.7244 35.6334C13.7403 35.5941 13.7553 35.5549 13.7703 35.5157C13.922 35.1008 13.9998 34.6617 14 34.2189C14.0001 33.2386 14.3815 32.2985 15.0603 31.6052L16.25 30.3908L20 28.0939L21.4091 26.6555C21.8151 26.241 22.361 26.0008 22.935 25.9839C23.5089 25.967 24.0675 26.1747 24.4962 26.5645C24.5291 26.5942 24.56 26.6239 24.5909 26.6555L26 28.0939L26.5297 28.6346L26.6591 28.7667L28.25 30.3908L28.7797 30.9315L31.1591 33.3604C31.5809 33.7912 31.8179 34.3754 31.8179 34.9845C31.8179 35.5936 31.5809 36.1778 31.1591 36.6086Z" fill="#F9D3B4"/>
<path d="M31.0297 33.2288C30.9175 34.0495 30.5451 34.8102 29.9694 35.3945L29.3103 36.0673L28.25 34.9849L28.9091 34.3121C29.3299 33.8808 29.5663 33.2968 29.5663 32.688C29.5663 32.0793 29.3299 31.4953 28.9091 31.064L31.0297 33.2288Z" fill="#F4B386"/>
<path d="M28.7797 30.9319C28.6675 31.7527 28.2951 32.5134 27.7194 33.0977L27.0603 33.7704L26 32.688L26.6591 32.0152C27.0799 31.5839 27.3163 31 27.3163 30.3912C27.3163 29.7824 27.0799 29.1984 26.6591 28.7671L28.25 30.3912L28.7797 30.9319Z" fill="#F4B386"/>
<path d="M26.5297 28.635C26.4175 29.4558 26.0451 30.2165 25.4694 30.8008L24.8103 31.4736L23.75 30.3912L24.4091 29.7184C24.8144 29.303 25.0492 28.7454 25.0654 28.1593C25.0816 27.5732 24.878 27.003 24.4962 26.5649C24.5291 26.5946 24.56 26.6243 24.5909 26.6559L26 28.0943L26.5297 28.635Z" fill="#F4B386"/>
<path d="M16.25 38.047L15.1897 39.1294L12.9397 36.8325C13.2759 36.4893 13.5426 36.0818 13.7244 35.6333C13.7403 35.5941 13.7553 35.5549 13.7703 35.5156L16.25 38.047Z" fill="#F4B386"/>
<path d="M17 46.4688L10.25 39.5781L12.5 37.2812L21.5 46.4688H17Z" fill="#8FD1EC"/>
<path d="M17 46.4688L8.75 38.0469L0.5 46.4688H17Z" fill="#37A3C8"/>
<path d="M5.75 10.4844C6.54565 10.4844 7.30871 10.1617 7.87132 9.58739C8.43393 9.01306 8.75 8.2341 8.75 7.42188C8.75 8.2341 9.06607 9.01306 9.62868 9.58739C10.1913 10.1617 10.9544 10.4844 11.75 10.4844C10.9544 10.4844 10.1913 10.807 9.62868 11.3814C9.06607 11.9557 8.75 12.7346 8.75 13.5469C8.75 12.7346 8.43393 11.9557 7.87132 11.3814C7.30871 10.807 6.54565 10.4844 5.75 10.4844Z" fill="#F3C333"/>
<path d="M33.5 8.1875C34.2956 8.1875 35.0587 7.86484 35.6213 7.29051C36.1839 6.71618 36.5 5.93723 36.5 5.125C36.5 5.93723 36.8161 6.71618 37.3787 7.29051C37.9413 7.86484 38.7044 8.1875 39.5 8.1875C38.7044 8.1875 37.9413 8.51016 37.3787 9.08449C36.8161 9.65882 36.5 10.4378 36.5 11.25C36.5 10.4378 36.1839 9.65882 35.6213 9.08449C35.0587 8.51016 34.2956 8.1875 33.5 8.1875Z" fill="#F3C333"/>
<path d="M27.5 24.2656C28.2956 24.2656 29.0587 23.943 29.6213 23.3686C30.1839 22.7943 30.5 22.0154 30.5 21.2031C30.5 22.0154 30.8161 22.7943 31.3787 23.3686C31.9413 23.943 32.7044 24.2656 33.5 24.2656C32.7044 24.2656 31.9413 24.5883 31.3787 25.1626C30.8161 25.7369 30.5 26.5159 30.5 27.3281C30.5 26.5159 30.1839 25.7369 29.6213 25.1626C29.0587 24.5883 28.2956 24.2656 27.5 24.2656Z" fill="#F3C333"/>
<path d="M14.75 28.8594L17.75 25.7969L20 28.0937C20.197 28.2948 20.3532 28.5336 20.4598 28.7963C20.5664 29.059 20.6213 29.3406 20.6213 29.625C20.6213 29.9094 20.5664 30.191 20.4598 30.4537C20.3532 30.7164 20.197 30.9552 20 31.1562C19.803 31.3573 19.5692 31.5168 19.3118 31.6257C19.0544 31.7345 18.7786 31.7905 18.5 31.7905C18.2214 31.7905 17.9456 31.7345 17.6882 31.6257C17.4308 31.5168 17.197 31.3573 17 31.1562L14.75 28.8594Z" fill="#C9D9E5"/>
</svg>
