<svg width="48" height="48" viewBox="0 0 48 48" fill="none" xmlns="http://www.w3.org/2000/svg">
<path d="M24.0023 45.3128L33.5113 42.9114C38.939 38.4045 42.3961 31.6065 42.3961 24.0003C42.3961 12.268 34.1732 2.45644 23.1762 0.0141602C10.3028 0.448316 0 11.0211 0 24.0002C0 30.6669 2.71875 36.6983 7.10737 41.0473L24.0023 45.3128Z" fill="#CBE2FF"/>
<path d="M41.8982 24C41.8982 31.867 38.1125 38.8492 32.264 43.2262L40.8919 41.0473C45.2808 36.6982 48 30.6669 48 24C48 10.7452 37.2548 0 24 0C22.9665 0 21.9482 0.0654375 20.9491 0.192187C32.7634 1.69106 41.8982 11.7787 41.8982 24Z" fill="#BED8FB"/>
<path d="M29.9645 9.08907C29.9645 7.86329 28.9708 6.86963 27.745 6.86963H20.0967C17.2757 6.86963 14.9887 9.15657 14.9887 11.9776V17.6488H33.0083V12.058C33.0083 10.8323 32.0147 9.8386 30.7889 9.8386H30.7141C30.3001 9.8386 29.9645 9.50307 29.9645 9.08907Z" fill="#365E7D"/>
<path d="M30.7889 9.83869H30.7141C30.3001 9.83869 29.9645 9.50307 29.9645 9.08907C29.9645 7.86329 28.9708 6.86963 27.745 6.86963H26.9064V17.6488H33.0082V12.058C33.0083 10.8324 32.0146 9.83869 30.7889 9.83869Z" fill="#2B4D66"/>
<path d="M39.848 34.9081C39.2612 34.3285 38.5354 33.8803 37.7114 33.6195L31.1591 31.545L24.0015 31.2935L16.8409 31.545L10.2886 33.6195C8.07197 34.3213 6.5655 36.3784 6.5655 38.7035V40.4935C10.7645 44.9305 16.639 47.7655 23.1764 47.986C30.5009 46.3592 36.5948 41.4633 39.848 34.9081Z" fill="#4A80AA"/>
<path d="M41.4345 40.4936V38.7036C41.4345 37.0596 40.6807 35.5503 39.4559 34.5586C35.9768 41.6485 29.1038 46.7712 20.9547 47.8071C21.9383 47.9317 22.9402 47.9981 23.9572 47.9999C24.9343 47.9984 25.8985 47.9418 26.8469 47.8328C32.5686 47.1567 37.6736 44.4678 41.4345 40.4936Z" fill="#407093"/>
<path d="M24.5434 47.6405C25.9955 44.7576 29.7767 36.5717 28.6985 31.4584L24.0015 29.6304L19.3001 31.4585C18.1886 36.7296 22.2411 45.2657 23.5827 47.8919C23.9054 47.8145 24.2257 47.7306 24.5434 47.6405Z" fill="#E4F6FF"/>
<path d="M27.0185 45.355L25.114 37.8628H22.8859L20.9861 45.3346L23.3353 47.9499C23.9317 47.8133 24.5197 47.655 25.0987 47.4758L27.0185 45.355Z" fill="#E28086"/>
<path d="M23.3721 47.9908C23.5666 47.9959 23.7615 47.9993 23.9572 47.9997C24.1836 47.9993 24.4092 47.9954 24.6342 47.9891L25.8442 46.6523C24.8918 46.9865 23.9121 47.2623 22.909 47.4754L23.3721 47.9908Z" fill="#DD636E"/>
<path d="M28.0101 30.7674V26.5425H19.9869V30.7674C19.9869 32.9829 23.9985 35.403 23.9985 35.403C23.9985 35.403 28.0101 32.9829 28.0101 30.7674Z" fill="#FFDDCE"/>
<path d="M33.0083 16.9051H31.4747C30.6217 16.9051 29.9303 16.2137 29.9303 15.3607V14.5156C29.9303 13.4046 28.8433 12.619 27.7884 12.9677C25.3282 13.7809 22.6717 13.7811 20.2113 12.9682L20.2084 12.9673C19.1535 12.6188 18.0667 13.4044 18.0667 14.5153V15.3608C18.0667 16.2138 17.3752 16.9052 16.5223 16.9052H14.9887V19.4306C14.9887 20.0759 15.5119 20.5991 16.1572 20.5991C16.3609 20.5991 16.5265 20.7586 16.5394 20.9618C16.7857 24.8682 20.0302 27.9606 23.9986 27.9606C27.967 27.9606 31.2114 24.8682 31.4578 20.9618C31.4707 20.7587 31.6363 20.5991 31.8399 20.5991C32.4852 20.5991 33.0084 20.076 33.0084 19.4306V16.9051H33.0083Z" fill="#FFDDCE"/>
<path d="M31.4747 16.9053C30.6218 16.9053 29.9303 16.2139 29.9303 15.3609V14.5158C29.9303 13.4047 28.8433 12.6192 27.7884 12.9679C27.4971 13.0642 27.2028 13.1482 26.9065 13.2217V21.5628C26.8655 24.2767 25.3784 26.6386 23.1823 27.9151C23.4505 27.9443 23.7226 27.9607 23.9985 27.9607C27.9669 27.9607 31.2113 24.8682 31.4577 20.9618C31.4706 20.7587 31.6362 20.5991 31.8398 20.5991C32.4851 20.5991 33.0083 20.076 33.0083 19.4306V16.9052H31.4747V16.9053Z" fill="#FFCBBE"/>
<path d="M19.9869 29.6304L16.8409 32.1866L20.1401 36.266C20.5415 36.6567 21.1732 36.6807 21.6031 36.3217L24.0842 34.2491L19.9869 29.6304Z" fill="#F4FBFF"/>
<path d="M28.0116 29.6304L24.0842 34.2491L26.4161 36.243C26.8433 36.6083 27.478 36.5899 27.8834 36.2006L31.159 32.1866L28.0116 29.6304Z" fill="#F4FBFF"/>
<path d="M19.9869 29.6304L15.3692 31.899C15.0176 32.0717 14.8764 32.4994 15.056 32.8475L15.9607 34.6016C16.1951 35.0561 16.1086 35.6099 15.7467 35.9712C15.5604 36.1572 15.3587 36.3585 15.1838 36.5331C14.8709 36.8455 14.7585 37.307 14.8963 37.7272C15.9886 41.0569 21.2455 46.1486 23.235 47.9907C23.3688 47.9943 23.5028 47.9967 23.6372 47.9982C22.1945 45.192 17.082 34.5306 19.9869 29.6304Z" fill="#365E7D"/>
<path d="M32.2518 35.9712C31.8898 35.6098 31.8034 35.056 32.0378 34.6015L32.9425 32.8474C33.1221 32.4993 32.9809 32.0716 32.6293 31.8989L28.0116 29.6304C30.9158 34.5293 25.8068 45.1862 24.3625 47.996C24.4983 47.9937 24.6338 47.9903 24.7689 47.9858C26.7625 46.1394 32.0109 41.0539 33.1022 37.7273C33.24 37.3071 33.1276 36.8456 32.8147 36.5332C32.6398 36.3585 32.4381 36.1571 32.2518 35.9712Z" fill="#365E7D"/>
<path d="M24.0842 34.2495L21.6411 36.2899L22.8859 37.8631H25.114L26.3589 36.1971L24.0842 34.2495Z" fill="#DD636E"/>
</svg>
